<?xml version="1.0" encoding="UTF-8"?>
<svg version="1.1" xmlns="http://www.w3.org/2000/svg" width="360" height="281">
<path d="M0 0 C118.8 0 237.6 0 360 0 C360 92.73 360 185.46 360 281 C241.2 281 122.4 281 0 281 C0 188.27 0 95.54 0 0 Z " fill="#F9F9F9" transform="translate(0,0)"/>
<path d="M0 0 C5.32822589 0.37391059 13.01670782 1.01670782 17 5 C16.59893578 12.60449209 14.52703391 19.35043073 12.1875 26.5625 C9.88901461 33.81839356 7.63992858 41.0323103 5.875 48.4375 C4.3271164 54.9277488 2.40241709 61.22799336 0.35546875 67.57275391 C-2.376458 76.07570432 -4.80491627 84.65879362 -7.22509766 93.25463867 C-10.77673332 105.83754447 -14.4250341 118.392607 -18.06738281 130.94946289 C-22.54743676 146.39677761 -27.01524514 161.84765608 -31.32818604 177.34260559 C-32.35199109 181.01775219 -33.38296009 184.69087034 -34.41479492 188.36376953 C-34.93868593 190.23587294 -35.45908414 192.10895665 -35.97631836 193.98291016 C-36.73931301 196.74388614 -37.5148454 199.50106787 -38.29296875 202.2578125 C-38.52114792 203.09514923 -38.74932709 203.93248596 -38.98442078 204.79519653 C-39.20507706 205.56806 -39.42573334 206.34092346 -39.65307617 207.13720703 C-39.84149582 207.81333038 -40.02991547 208.48945374 -40.2240448 209.18606567 C-41.14680254 211.34317725 -42.18475585 212.52485555 -44 214 C-48.98126068 214.31238414 -54.62906751 213.45864953 -59 211 C-61 208 -61 208 -60.75 205.28515625 C-59.91870102 201.64389355 -58.99627894 198.03637719 -58 194.4375 C-56.86289516 190.30519509 -55.84177562 186.20887811 -55 182 C-58.96 182 -62.92 182 -67 182 C-67 186.95 -67 191.9 -67 197 C-71.95 197 -76.9 197 -82 197 C-82 201.95 -82 206.9 -82 212 C-86.95 212 -91.9 212 -97 212 C-97 207.05 -97 202.1 -97 197 C-101.95 197 -106.9 197 -112 197 C-112 192.05 -112 187.1 -112 182 C-116.95 182 -121.9 182 -127 182 C-127 177.05 -127 172.1 -127 167 C-131.95 167 -136.9 167 -142 167 C-142 162.05 -142 157.1 -142 152 C-146.95 152 -151.9 152 -157 152 C-157 147.05 -157 142.1 -157 137 C-161.95 137 -166.9 137 -172 137 C-172 132.05 -172 127.1 -172 122 C-176.95 122 -181.9 122 -187 122 C-187 117.05 -187 112.1 -187 107 C-182.05 107 -177.1 107 -172 107 C-172 102.05 -172 97.1 -172 92 C-167.05 92 -162.1 92 -157 92 C-157 87.05 -157 82.1 -157 77 C-152.05 77 -147.1 77 -142 77 C-142 72.05 -142 67.1 -142 62 C-137.05 62 -132.1 62 -127 62 C-127 57.05 -127 52.1 -127 47 C-122.05 47 -117.1 47 -112 47 C-112 42.05 -112 37.1 -112 32 C-107.05 32 -102.1 32 -97 32 C-97 27.05 -97 22.1 -97 17 C-92.05 17 -87.1 17 -82 17 C-82 20.96 -82 24.92 -82 29 C-82.99 29 -83.98 29 -85 29 C-83.948125 30.051875 -83.948125 30.051875 -82.875 31.125 C-82.42640625 31.58261719 -81.9778125 32.04023437 -81.515625 32.51171875 C-80.4779531 33.53066977 -79.40196526 34.51162146 -78.296875 35.45703125 C-77.74515625 35.94558594 -77.1934375 36.43414062 -76.625 36.9375 C-76.10164063 37.37964844 -75.57828125 37.82179687 -75.0390625 38.27734375 C-74 40 -74 40 -74.08946228 42.72758484 C-75.25038205 46.8998573 -77.49853743 49.15839321 -80.52954102 52.08129883 C-81.10514771 52.65602936 -81.68075439 53.23075989 -82.27380371 53.82290649 C-84.17237194 55.71291785 -86.08789865 57.58471558 -88.00390625 59.45703125 C-89.32643051 60.76768641 -90.64778054 62.07952741 -91.96800232 63.39250183 C-95.44085687 66.84063072 -98.92802396 70.27390822 -102.41882324 73.70385742 C-107.34753321 78.55201732 -112.25643941 83.42024264 -117.16770935 88.28605652 C-119.78352342 90.87754137 -122.40467535 93.46344162 -125.03016663 96.04512024 C-126.22007517 97.21862501 -127.40997148 98.39214218 -128.59985352 99.56567383 C-129.14997604 100.10434586 -129.70009857 100.64301788 -130.26689148 101.19801331 C-131.53023778 102.44642595 -132.76821201 103.720439 -134 105 C-134 105.33 -134 105.66 -134 106 C-123.11 106.495 -123.11 106.495 -112 107 C-112 111.95 -112 116.9 -112 122 C-107.05 122 -102.1 122 -97 122 C-97 126.95 -97 131.9 -97 137 C-92.05 137 -87.1 137 -82 137 C-82 141.95 -82 146.9 -82 152 C-77.05 152 -72.1 152 -67 152 C-67 147.05 -67 142.1 -67 137 C-62.05 137 -57.1 137 -52 137 C-52 132.05 -52 127.1 -52 122 C-56.95 122 -61.9 122 -67 122 C-67 117.05 -67 112.1 -67 107 C-62.05 107 -57.1 107 -52 107 C-52 102.05 -52 97.1 -52 92 C-47.05 92 -42.1 92 -37 92 C-37 87.05 -37 82.1 -37 77 C-32.41015625 77.14648438 -32.41015625 77.14648438 -27.8203125 77.29296875 C-26.88960937 77.19628906 -25.95890625 77.09960938 -25 77 C-23.19690819 74.29536228 -22.52666792 72.75314943 -21.73828125 69.703125 C-21.51011719 68.83880859 -21.28195313 67.97449219 -21.046875 67.08398438 C-20.68335938 65.68116211 -20.68335938 65.68116211 -20.3125 64.25 C-17.94192191 55.31610497 -15.3530003 46.47532502 -12.61547852 37.64770508 C-10.22351718 29.87664755 -8.06546295 22.05439719 -6.04101562 14.1796875 C-3.13375208 3.13375208 -3.13375208 3.13375208 0 0 Z " fill="#F2F2F2" transform="translate(202,43)"/>
<path d="M0 0 C4.95 0 9.9 0 15 0 C15 4.95 15 9.9 15 15 C19.95 15 24.9 15 30 15 C30 19.95 30 24.9 30 30 C34.95 30 39.9 30 45 30 C45 34.95 45 39.9 45 45 C49.95 45 54.9 45 60 45 C60 49.95 60 54.9 60 60 C64.95 60 69.9 60 75 60 C75 64.95 75 69.9 75 75 C79.95 75 84.9 75 90 75 C90 84.9 90 94.8 90 105 C94.95 105 99.9 105 105 105 C105 109.95 105 114.9 105 120 C109.95 120 114.9 120 120 120 C120 144.75 120 169.5 120 195 C115.05 195 110.1 195 105 195 C105 199.95 105 204.9 105 210 C100.05 210 95.1 210 90 210 C90 205.05 90 200.1 90 195 C85.05 195 80.1 195 75 195 C75 199.95 75 204.9 75 210 C70.05 210 65.1 210 60 210 C60 205.05 60 200.1 60 195 C55.05 195 50.1 195 45 195 C45 199.95 45 204.9 45 210 C40.05 210 35.1 210 30 210 C30 205.05 30 200.1 30 195 C25.05 195 20.1 195 15 195 C15 199.95 15 204.9 15 210 C10.05 210 5.1 210 0 210 C0 196.14 0 182.28 0 168 C0.99 168 1.98 168 3 168 C2.45730469 167.54109375 1.91460937 167.0821875 1.35546875 166.609375 C0.28232422 165.68898437 0.28232422 165.68898437 -0.8125 164.75 C-1.52019531 164.14671875 -2.22789062 163.5434375 -2.95703125 162.921875 C-4.98947979 161.00989664 -6.62367883 159.43256766 -8 157 C-7.74538416 152.15074744 -5.52754332 150.08746699 -2.11303711 146.81762695 C-1.60570541 146.32577408 -1.09837372 145.8339212 -0.57566833 145.3271637 C0.52401696 144.26271514 1.62805588 143.2027499 2.73591805 142.14681435 C4.49092238 140.47083764 6.23031218 138.7800651 7.96592712 137.08403015 C12.90097738 132.26488591 17.85456089 127.46549956 22.83813477 122.6965332 C25.88879173 119.77513935 28.91424641 116.82953823 31.92547417 113.86754417 C33.07447706 112.74696968 34.23273938 111.63580556 35.40037727 110.53466225 C41.96840535 104.69322846 41.96840535 104.69322846 45.6960144 97.02011108 C45.78845513 93.97988734 45.78845513 93.97988734 45 90 C40.05 90 35.1 90 30 90 C30 85.05 30 80.1 30 75 C25.05 75 20.1 75 15 75 C15 70.05 15 65.1 15 60 C10.05 60 5.1 60 0 60 C0 55.05 0 50.1 0 45 C-4.95 45 -9.9 45 -15 45 C-15 35.1 -15 25.2 -15 15 C-10.05 14.67 -5.1 14.34 0 14 C0 9.38 0 4.76 0 0 Z " fill="#F3F3F3" transform="translate(240,60)"/>
<path d="M0 0 C5.32822589 0.37391059 13.01670782 1.01670782 17 5 C16.59893578 12.60449209 14.52703391 19.35043073 12.1875 26.5625 C9.88901461 33.81839356 7.63992858 41.0323103 5.875 48.4375 C4.3271164 54.9277488 2.40241709 61.22799336 0.35546875 67.57275391 C-2.376458 76.07570432 -4.80491627 84.65879362 -7.22509766 93.25463867 C-10.77673332 105.83754447 -14.4250341 118.392607 -18.06738281 130.94946289 C-22.54743676 146.39677761 -27.01524514 161.84765608 -31.32818604 177.34260559 C-32.35199109 181.01775219 -33.38296009 184.69087034 -34.41479492 188.36376953 C-34.93868593 190.23587294 -35.45908414 192.10895665 -35.97631836 193.98291016 C-36.73931301 196.74388614 -37.5148454 199.50106787 -38.29296875 202.2578125 C-38.52114792 203.09514923 -38.74932709 203.93248596 -38.98442078 204.79519653 C-39.20507706 205.56806 -39.42573334 206.34092346 -39.65307617 207.13720703 C-39.93570564 208.15139206 -39.93570564 208.15139206 -40.2240448 209.18606567 C-41.14680254 211.34317725 -42.18475585 212.52485555 -44 214 C-48.98126068 214.31238414 -54.62906751 213.45864953 -59 211 C-61 208 -61 208 -60.7890625 205.43359375 C-59.75744391 200.94452079 -58.59831146 196.50290045 -57.375 192.0625 C-57.11138672 191.09957031 -56.84777344 190.13664063 -56.57617188 189.14453125 C-54.39423405 181.2548076 -52.02330506 173.4301281 -49.60693359 165.60961914 C-47.33303276 158.2085032 -45.27398834 150.76396245 -43.27392578 143.28491211 C-41.17714636 135.50593013 -38.84042377 127.81097617 -36.46484375 120.11328125 C-34.87168878 114.93021709 -33.36019518 109.74895831 -32 104.5 C-30.38172292 98.25511024 -28.52725984 92.10147501 -26.625 85.9375 C-24.27737661 78.32520628 -22.05798303 70.69563864 -20 63 C-17.72249434 54.48639438 -15.22369486 46.06019873 -12.61425781 37.64282227 C-10.22209156 29.87359196 -8.06504004 22.05275219 -6.04101562 14.1796875 C-3.13375208 3.13375208 -3.13375208 3.13375208 0 0 Z " fill="#020202" transform="translate(202,43)"/>
<path d="M0 0 C3.07720668 1.192542 4.37399013 2.38946497 6.40605164 4.96682739 C6.97839539 5.67710083 7.55073914 6.38737427 8.14042664 7.11917114 C8.64058289 7.74952271 9.14073914 8.37987427 9.65605164 9.02932739 C10.64605164 10.01932739 10.64605164 10.01932739 11.65605164 11.02932739 C11.61328164 15.7839168 10.03979509 18.21939167 6.73506165 21.55020142 C6.17918365 22.08496094 5.62330566 22.61972046 5.05058289 23.17068481 C4.46682892 23.75195633 3.88307495 24.33322784 3.28163147 24.93211365 C1.35525806 26.84484164 -0.58797497 28.73945933 -2.53144836 30.63479614 C-3.87406884 31.96300596 -5.21544226 33.29247745 -6.55561829 34.62315369 C-10.08252273 38.11966307 -13.62329806 41.60176075 -17.16804504 45.08016968 C-22.84519933 50.65492817 -28.50299605 56.24927444 -34.15708923 61.84740639 C-36.13581696 63.80191724 -38.12158684 65.74905329 -40.10835266 67.69538879 C-41.31859044 68.88877886 -42.52864292 70.08235689 -43.73847961 71.27615356 C-44.2943576 71.81698578 -44.8502356 72.35781799 -45.42295837 72.91503906 C-47.80493212 75.27588902 -49.26724266 76.79921028 -50.34394836 80.02932739 C-49.68394836 80.02932739 -49.02394836 80.02932739 -48.34394836 80.02932739 C-48.34394836 80.68932739 -48.34394836 81.34932739 -48.34394836 82.02932739 C-47.35394836 82.35932739 -46.36394836 82.68932739 -45.34394836 83.02932739 C-45.34394836 83.68932739 -45.34394836 84.34932739 -45.34394836 85.02932739 C-44.68394836 85.02932739 -44.02394836 85.02932739 -43.34394836 85.02932739 C-41.63401403 86.65157279 -39.97047152 88.32346164 -38.34394836 90.02932739 C-37.74582336 90.58620239 -37.14769836 91.14307739 -36.53144836 91.71682739 C-35.34394836 93.02932739 -35.34394836 93.02932739 -35.34394836 95.02932739 C-34.68394836 95.02932739 -34.02394836 95.02932739 -33.34394836 95.02932739 C-32.04707336 96.38479614 -32.04707336 96.38479614 -30.59394836 98.21682739 C-28.61138037 100.61703078 -26.82818662 102.45729991 -24.40644836 104.46682739 C-21.94029518 106.53034332 -20.08289547 108.41223335 -18.03144836 110.84182739 C-15.48267291 113.84071772 -12.82172392 116.45600353 -9.84394836 119.02932739 C-6.3052654 122.09658379 -3.24716762 125.29419647 -0.25410461 128.88870239 C2.8457906 132.36261359 6.34861715 135.43001116 9.81230164 138.53713989 C11.65605164 141.02932739 11.65605164 141.02932739 11.66777039 144.06448364 C10.55664062 147.32065155 9.41194219 148.94497761 6.96855164 151.34182739 C5.97275085 152.35696411 5.97275085 152.35696411 4.95683289 153.39260864 C1.95328092 155.52926106 0.36870341 156.03399878 -3.34394836 156.02932739 C-6.08853462 154.27168316 -8.19819536 151.96459532 -10.42207336 149.59963989 C-11.07472168 148.93471527 -11.72737 148.26979065 -12.39979553 147.5847168 C-14.48158836 145.45712815 -16.53797761 143.30685191 -18.59394836 141.15432739 C-20.66918168 139.01430302 -22.74926603 136.87911177 -24.83094788 134.74536133 C-26.12463555 133.41575016 -27.41356262 132.08148752 -28.69728088 130.74224854 C-29.27838623 130.13847382 -29.85949158 129.5346991 -30.45820618 128.91262817 C-30.9686145 128.3788858 -31.47902283 127.84514343 -32.00489807 127.29522705 C-33.34007077 125.91065232 -33.34007077 125.91065232 -35.34394836 125.02932739 C-35.34394836 124.36932739 -35.34394836 123.70932739 -35.34394836 123.02932739 C-35.98332336 122.76120239 -36.62269836 122.49307739 -37.28144836 122.21682739 C-39.34394836 121.02932739 -39.34394836 121.02932739 -40.34394836 118.02932739 C-41.33394836 117.69932739 -42.32394836 117.36932739 -43.34394836 117.02932739 C-43.34394836 116.36932739 -43.34394836 115.70932739 -43.34394836 115.02932739 C-44.00394836 115.02932739 -44.66394836 115.02932739 -45.34394836 115.02932739 C-45.34394836 114.36932739 -45.34394836 113.70932739 -45.34394836 113.02932739 C-46.00394836 113.02932739 -46.66394836 113.02932739 -47.34394836 113.02932739 C-48.96894836 111.65432739 -48.96894836 111.65432739 -50.34394836 110.02932739 C-50.34394836 109.36932739 -50.34394836 108.70932739 -50.34394836 108.02932739 C-50.98332336 107.76120239 -51.62269836 107.49307739 -52.28144836 107.21682739 C-54.34394836 106.02932739 -54.34394836 106.02932739 -55.34394836 103.02932739 C-56.82894836 102.53432739 -56.82894836 102.53432739 -58.34394836 102.02932739 C-58.34394836 101.36932739 -58.34394836 100.70932739 -58.34394836 100.02932739 C-59.00394836 100.02932739 -59.66394836 100.02932739 -60.34394836 100.02932739 C-60.34394836 99.36932739 -60.34394836 98.70932739 -60.34394836 98.02932739 C-61.82894836 97.53432739 -61.82894836 97.53432739 -63.34394836 97.02932739 C-63.34394836 96.36932739 -63.34394836 95.70932739 -63.34394836 95.02932739 C-64.00394836 95.02932739 -64.66394836 95.02932739 -65.34394836 95.02932739 C-65.34394836 94.36932739 -65.34394836 93.70932739 -65.34394836 93.02932739 C-66.21019836 92.65807739 -66.21019836 92.65807739 -67.09394836 92.27932739 C-69.67334816 90.84632751 -71.40516428 89.24508063 -73.34394836 87.02932739 C-73.34394836 86.36932739 -73.34394836 85.70932739 -73.34394836 85.02932739 C-74.00394836 85.02932739 -74.66394836 85.02932739 -75.34394836 85.02932739 C-75.34394836 84.36932739 -75.34394836 83.70932739 -75.34394836 83.02932739 C-76.00394836 83.02932739 -76.66394836 83.02932739 -77.34394836 83.02932739 C-79.34394836 80.02932739 -79.34394836 80.02932739 -79.40039062 77.80859375 C-77.75929355 73.49122966 -74.67906925 70.78334288 -71.44087219 67.56106567 C-70.71884613 66.82721146 -69.99682007 66.09335724 -69.25291443 65.33726501 C-66.8626967 62.91414298 -64.45777883 60.50628553 -62.05097961 58.09963989 C-60.38489212 56.4232415 -58.71918159 54.74646838 -57.05383301 53.06933594 C-53.56105922 49.55712185 -50.06036999 46.05302292 -46.55464172 42.55374146 C-42.05766413 38.06276879 -37.58634918 33.54716298 -33.12128162 29.02449226 C-29.68897099 25.55526754 -26.24082546 22.10212813 -22.78792381 18.65340805 C-21.13211394 16.99471928 -19.48192471 15.33040024 -17.83745766 13.66046524 C-15.53923161 11.33040622 -13.21999299 9.02351381 -10.89399719 6.72122192 C-10.2158345 6.02417648 -9.53767181 5.32713104 -8.83895874 4.60896301 C-4.15327006 0.03642538 -4.15327006 0.03642538 0 0 Z " fill="#030303" transform="translate(116.34394836425781,71.97067260742188)"/>
<path d="M0 0 C4.33748348 1.62721184 7.0386014 4.70679486 10.26998901 7.95414734 C11.00384323 8.6761734 11.73769745 9.39819946 12.49378967 10.1421051 C14.91691171 12.53232283 17.32476916 14.93724071 19.73141479 17.34403992 C21.40781319 19.01012741 23.08458631 20.67583794 24.76171875 22.34118652 C28.27393284 25.83396031 31.77803177 29.33464955 35.27731323 32.84037781 C39.7682859 37.3373554 44.2838917 41.80867035 48.80656242 46.27373791 C52.27578714 49.70604854 55.72892655 53.15419408 59.17764664 56.60709572 C60.83633541 58.26290559 62.50065445 59.91309482 64.17058945 61.55756187 C66.50064847 63.85578792 68.80754088 66.17502655 71.10983276 68.50102234 C71.8068782 69.17918503 72.50392365 69.85734772 73.22209167 70.55606079 C77.69993657 75.14471348 77.69993657 75.14471348 78.13993835 79.06254578 C76.22201655 83.34569527 73.40120621 86.14873307 70.08224487 89.41752625 C69.37972595 90.12880676 68.67720703 90.84008728 67.95339966 91.57292175 C65.63010009 93.91820923 63.28900745 96.24475482 60.94625854 98.57060242 C59.32465073 100.19557848 57.70378574 101.82129614 56.08363342 103.44772339 C52.68613459 106.85259284 49.27975854 110.24825668 45.86691284 113.63774109 C41.4928413 117.98332633 37.14159903 122.35097133 32.7967577 126.72575855 C29.45406183 130.08652133 26.09954896 133.43528465 22.74133873 136.78053856 C21.13210617 138.38643551 19.52658014 139.99605554 17.92484474 141.60943031 C15.68449991 143.86247218 13.42875222 146.09886473 11.16818237 148.33158875 C10.50872116 149.00117111 9.84925995 149.67075348 9.16981506 150.36062622 C5.56893069 153.87976123 3.10625635 156.05261203 -2.19827271 156.05107117 C-4.42874146 154.75810242 -4.42874146 154.75810242 -6.38577271 152.86357117 C-7.03932739 152.25126648 -7.69288208 151.63896179 -8.36624146 151.00810242 C-13.22160808 145.82145278 -13.22160808 145.82145278 -13.1302948 142.80688477 C-11.83078892 138.96449091 -9.32538422 136.65201709 -6.48513794 133.88383484 C-5.89002411 133.2881369 -5.29491028 132.69243896 -4.6817627 132.07868958 C-2.71613127 130.11584056 -0.73672159 128.16753238 1.24313354 126.21903992 C2.6102097 124.85942554 3.97640426 123.49892421 5.3417511 122.13757324 C8.93496231 118.55962309 12.54002394 114.99384822 16.14767456 111.4304657 C19.82799462 107.79108762 23.49699541 104.14033771 27.16696167 100.49052429 C34.36750907 93.33285617 41.58062523 86.18799775 48.80172729 79.05107117 C47.02757098 75.18886543 44.8415523 73.09660234 41.61422729 70.30107117 C37.54567934 66.72021886 33.89627183 62.99695751 30.41110229 58.84794617 C28.34121485 56.53690678 26.02843419 54.64766293 23.63546753 52.68315125 C21.80452763 51.05356355 20.27423576 49.35816178 18.69625854 47.48466492 C14.35681251 42.46240274 9.69142672 37.79408481 4.98922729 33.11357117 C4.1313562 32.25183289 3.27348511 31.3900946 2.38961792 30.50224304 C1.5704187 29.68433289 0.75121948 28.86642273 -0.09280396 28.02372742 C-0.83377319 27.28388611 -1.57474243 26.5440448 -2.33816528 25.78178406 C-4.0923634 23.98658448 -4.0923634 23.98658448 -6.19827271 23.05107117 C-6.19827271 22.39107117 -6.19827271 21.73107117 -6.19827271 21.05107117 C-6.85827271 21.05107117 -7.51827271 21.05107117 -8.19827271 21.05107117 C-12.14023699 17.10910688 -12.14023699 17.10910688 -13.19827271 15.05107117 C-13.08055249 10.28732632 -10.70006911 7.95672967 -7.44827271 4.67607117 C-6.58717896 3.78146179 -5.72608521 2.88685242 -4.83889771 1.96513367 C-2.19827271 0.05107117 -2.19827271 0.05107117 0 0 Z " fill="#020202" transform="translate(245.19827270507813,71.94892883300781)"/>
<path d="M0 0 C4.95 0 9.9 0 15 0 C15 4.29 15 8.58 15 13 C12.525 12.505 12.525 12.505 10 12 C7.05254118 13.43920962 6.14629933 14.68571028 4.76171875 17.66015625 C4.40722656 18.78292969 4.05273438 19.90570313 3.6875 21.0625 C3.48439209 21.70026367 3.28128418 22.33802734 3.07202148 22.99511719 C0.69815729 30.63728629 -1.28862953 38.39592238 -3.32983398 46.13183594 C-5.38395718 53.8720103 -7.6366939 61.51767885 -10.13452148 69.12597656 C-11.31370713 72.72961387 -12.36771742 76.25776938 -13 80 C-15 77 -15 77 -15 75 C-19.95 75 -24.9 75 -30 75 C-30 70.05 -30 65.1 -30 60 C-25.05 60 -20.1 60 -15 60 C-15 55.05 -15 50.1 -15 45 C-19.95 45 -24.9 45 -30 45 C-30 40.05 -30 35.1 -30 30 C-25.05 30 -20.1 30 -15 30 C-15 25.05 -15 20.1 -15 15 C-10.05 15 -5.1 15 0 15 C0 10.05 0 5.1 0 0 Z " fill="#EDEDED" transform="translate(195,30)"/>
<path d="M0 0 C4.95 0 9.9 0 15 0 C15 3.96 15 7.92 15 12 C13.96875 11.855625 12.9375 11.71125 11.875 11.5625 C8.15450153 11.59756665 8.15450153 11.59756665 6.55459213 13.32447338 C6.10568745 13.90504655 5.65678276 14.48561972 5.1942749 15.08378601 C2.02340339 19.00623672 -1.40875173 22.54298962 -4.98339844 26.09692383 C-5.98938835 27.10313278 -5.98938835 27.10313278 -7.01570129 28.12966919 C-9.21122798 30.32450478 -11.4102653 32.51578616 -13.609375 34.70703125 C-15.14322436 36.23901316 -16.67685132 37.77121776 -18.21026611 39.30363464 C-22.23169542 43.32126108 -26.25611859 47.33587534 -30.28118896 51.34985352 C-34.38589123 55.44430646 -38.48774795 59.5416079 -42.58984375 63.63867188 C-49.78444699 70.82371902 -56.98148591 78.00631898 -64.18035889 85.18708801 C-65.78770163 86.7905948 -67.39457409 88.39457409 -69 90 C-70.98 90 -72.96 90 -75 90 C-75 85.05 -75 80.1 -75 75 C-70.05 75 -65.1 75 -60 75 C-60 70.05 -60 65.1 -60 60 C-55.05 60 -50.1 60 -45 60 C-45 55.05 -45 50.1 -45 45 C-40.05 45 -35.1 45 -30 45 C-30 40.05 -30 35.1 -30 30 C-25.05 30 -20.1 30 -15 30 C-15 25.05 -15 20.1 -15 15 C-10.05 15 -5.1 15 0 15 C0 10.05 0 5.1 0 0 Z " fill="#EBEBEB" transform="translate(105,60)"/>
<path d="M0 0 C5.67276511 -0.29341888 8.99067246 -0.00559652 14 3 C14 3.66 14 4.32 14 5 C14.5472876 5.22131592 15.0945752 5.44263184 15.65844727 5.6706543 C18.73231605 7.41575028 21.01305625 9.76594952 23.46484375 12.26953125 C23.98003067 12.78754807 24.49521759 13.30556488 25.02601624 13.83927917 C26.6679495 15.49236715 28.30280019 17.15226177 29.9375 18.8125 C31.03273809 19.91777871 32.12843671 21.02260128 33.22460938 22.12695312 C35.2501893 24.16881385 37.27298942 26.21334469 39.29272461 28.26098633 C41.85219113 30.85045832 44.4230254 33.42796476 47 36 C54.66666667 43.66666667 62.33333333 51.33333333 70 59 C68.61811547 62.21043882 67.07578097 64.04936365 64.375 66.25 C63.74335938 66.77078125 63.11171875 67.2915625 62.4609375 67.828125 C61.97882813 68.21484375 61.49671875 68.6015625 61 69 C60 68 60 68 59.90234375 66.15234375 C59.93489583 64.1015625 59.96744792 62.05078125 60 60 C55.05 60 50.1 60 45 60 C45 55.05 45 50.1 45 45 C40.05 45 35.1 45 30 45 C30 40.05 30 35.1 30 30 C25.05 30 20.1 30 15 30 C15 25.05 15 20.1 15 15 C10.05 15 5.1 15 0 15 C0 10.05 0 5.1 0 0 Z " fill="#EDEDED" transform="translate(225,90)"/>
<path d="M0 0 C2.31 0 4.62 0 7 0 C7 4.95 7 9.9 7 15 C11.95 15 16.9 15 22 15 C22 19.62 22 24.24 22 29 C17.73840618 31.13079691 11.59236298 30.04502317 7 30 C7 34.95 7 39.9 7 45 C2.05 45 -2.9 45 -8 45 C-8 49.95 -8 54.9 -8 60 C-11.465 60.495 -11.465 60.495 -15 61 C-13.08769438 53.12503726 -10.98989425 45.33177834 -8.6875 37.5625 C-8.0766773 35.47530303 -7.46600335 33.38806252 -6.85546875 31.30078125 C-5.64242318 27.16902423 -4.41369505 23.04233523 -3.17578125 18.91796875 C-2.61698513 17.02870568 -2.05838249 15.13938537 -1.5 13.25 C-1.23276123 12.37545166 -0.96552246 11.50090332 -0.69018555 10.59985352 C-0.45211182 9.78830811 -0.21403809 8.9767627 0.03125 8.140625 C0.24330078 7.43454102 0.45535156 6.72845703 0.67382812 6.00097656 C1.04666364 3.71373112 0.70453417 2.1884746 0 0 Z " fill="#FAFAFA" transform="translate(218,45)"/>
<path d="M0 0 C2.64581609 -0.22296203 4.99279502 -0.28148752 7.625 -0.1875 C10.05875 -0.125625 12.4925 -0.06375 15 0 C15 4.95 15 9.9 15 15 C10.05 15 5.1 15 0 15 C0 19.95 0 24.9 0 30 C-4.95 30 -9.9 30 -15 30 C-15.125 18.25 -15.125 18.25 -14 16 C-11.03 16 -8.06 16 -5 16 C-4.80664062 15.09636719 -4.61328125 14.19273437 -4.4140625 13.26171875 C-4.15367187 12.08222656 -3.89328125 10.90273437 -3.625 9.6875 C-3.24214844 7.92986328 -3.24214844 7.92986328 -2.8515625 6.13671875 C-2 3 -2 3 0 0 Z " fill="#EDEDED" transform="translate(165,240)"/>
<path d="M0 0 C0.33 0.66 0.66 1.32 1 2 C4.96 2 8.92 2 13 2 C13 6.95 13 11.9 13 17 C8.05 17 3.1 17 -2 17 C-2 21.95 -2 26.9 -2 32 C-5.465 32.495 -5.465 32.495 -9 33 C-6.378868 21.8946776 -3.17352041 10.95719129 0 0 Z " fill="#EBEBEB" transform="translate(212,73)"/>
<path d="M0 0 C4.95 0 9.9 0 15 0 C15 4.95 15 9.9 15 15 C10.05 15 5.1 15 0 15 C0 10.05 0 5.1 0 0 Z " fill="#FFFFFF" transform="translate(345,255)"/>
<path d="M0 0 C4.95 0 9.9 0 15 0 C15 4.95 15 9.9 15 15 C10.05 15 5.1 15 0 15 C0 10.05 0 5.1 0 0 Z " fill="#EEEEEE" transform="translate(330,255)"/>
<path d="M0 0 C4.95 0 9.9 0 15 0 C15 4.95 15 9.9 15 15 C10.05 15 5.1 15 0 15 C0 10.05 0 5.1 0 0 Z " fill="#FFFFFF" transform="translate(315,255)"/>
<path d="M0 0 C4.95 0 9.9 0 15 0 C15 4.95 15 9.9 15 15 C10.05 15 5.1 15 0 15 C0 10.05 0 5.1 0 0 Z " fill="#EEEEEE" transform="translate(300,255)"/>
<path d="M0 0 C4.95 0 9.9 0 15 0 C15 4.95 15 9.9 15 15 C10.05 15 5.1 15 0 15 C0 10.05 0 5.1 0 0 Z " fill="#FFFFFF" transform="translate(285,255)"/>
<path d="M0 0 C4.95 0 9.9 0 15 0 C15 4.95 15 9.9 15 15 C10.05 15 5.1 15 0 15 C0 10.05 0 5.1 0 0 Z " fill="#EEEEEE" transform="translate(270,255)"/>
<path d="M0 0 C4.95 0 9.9 0 15 0 C15 4.95 15 9.9 15 15 C10.05 15 5.1 15 0 15 C0 10.05 0 5.1 0 0 Z " fill="#FFFFFF" transform="translate(255,255)"/>
<path d="M0 0 C4.95 0 9.9 0 15 0 C15 4.95 15 9.9 15 15 C10.05 15 5.1 15 0 15 C0 10.05 0 5.1 0 0 Z " fill="#EEEEEE" transform="translate(240,255)"/>
<path d="M0 0 C4.95 0 9.9 0 15 0 C15 4.95 15 9.9 15 15 C10.05 15 5.1 15 0 15 C0 10.05 0 5.1 0 0 Z " fill="#FFFFFF" transform="translate(225,255)"/>
<path d="M0 0 C4.95 0 9.9 0 15 0 C15 4.95 15 9.9 15 15 C10.05 15 5.1 15 0 15 C0 10.05 0 5.1 0 0 Z " fill="#EEEEEE" transform="translate(210,255)"/>
<path d="M0 0 C4.95 0 9.9 0 15 0 C15 4.95 15 9.9 15 15 C10.05 15 5.1 15 0 15 C0 10.05 0 5.1 0 0 Z " fill="#FFFFFF" transform="translate(195,255)"/>
<path d="M0 0 C4.95 0 9.9 0 15 0 C15 4.95 15 9.9 15 15 C10.05 15 5.1 15 0 15 C0 10.05 0 5.1 0 0 Z " fill="#EEEEEE" transform="translate(180,255)"/>
<path d="M0 0 C4.95 0 9.9 0 15 0 C15 4.95 15 9.9 15 15 C10.05 15 5.1 15 0 15 C0 10.05 0 5.1 0 0 Z " fill="#FFFFFF" transform="translate(165,255)"/>
<path d="M0 0 C4.95 0 9.9 0 15 0 C15 4.95 15 9.9 15 15 C10.05 15 5.1 15 0 15 C0 10.05 0 5.1 0 0 Z " fill="#EEEEEE" transform="translate(120,255)"/>
<path d="M0 0 C4.95 0 9.9 0 15 0 C15 4.95 15 9.9 15 15 C10.05 15 5.1 15 0 15 C0 10.05 0 5.1 0 0 Z " fill="#FFFFFF" transform="translate(105,255)"/>
<path d="M0 0 C4.95 0 9.9 0 15 0 C15 4.95 15 9.9 15 15 C10.05 15 5.1 15 0 15 C0 10.05 0 5.1 0 0 Z " fill="#EEEEEE" transform="translate(90,255)"/>
<path d="M0 0 C4.95 0 9.9 0 15 0 C15 4.95 15 9.9 15 15 C10.05 15 5.1 15 0 15 C0 10.05 0 5.1 0 0 Z " fill="#FFFFFF" transform="translate(75,255)"/>
<path d="M0 0 C4.95 0 9.9 0 15 0 C15 4.95 15 9.9 15 15 C10.05 15 5.1 15 0 15 C0 10.05 0 5.1 0 0 Z " fill="#EEEEEE" transform="translate(60,255)"/>
<path d="M0 0 C4.95 0 9.9 0 15 0 C15 4.95 15 9.9 15 15 C10.05 15 5.1 15 0 15 C0 10.05 0 5.1 0 0 Z " fill="#FFFFFF" transform="translate(45,255)"/>
<path d="M0 0 C4.95 0 9.9 0 15 0 C15 4.95 15 9.9 15 15 C10.05 15 5.1 15 0 15 C0 10.05 0 5.1 0 0 Z " fill="#EEEEEE" transform="translate(30,255)"/>
<path d="M0 0 C4.95 0 9.9 0 15 0 C15 4.95 15 9.9 15 15 C10.05 15 5.1 15 0 15 C0 10.05 0 5.1 0 0 Z " fill="#FFFFFF" transform="translate(15,255)"/>
<path d="M0 0 C4.95 0 9.9 0 15 0 C15 4.95 15 9.9 15 15 C10.05 15 5.1 15 0 15 C0 10.05 0 5.1 0 0 Z " fill="#EEEEEE" transform="translate(345,240)"/>
<path d="M0 0 C4.95 0 9.9 0 15 0 C15 4.95 15 9.9 15 15 C10.05 15 5.1 15 0 15 C0 10.05 0 5.1 0 0 Z " fill="#FFFFFF" transform="translate(330,240)"/>
<path d="M0 0 C4.95 0 9.9 0 15 0 C15 4.95 15 9.9 15 15 C10.05 15 5.1 15 0 15 C0 10.05 0 5.1 0 0 Z " fill="#EEEEEE" transform="translate(315,240)"/>
<path d="M0 0 C4.95 0 9.9 0 15 0 C15 4.95 15 9.9 15 15 C10.05 15 5.1 15 0 15 C0 10.05 0 5.1 0 0 Z " fill="#FFFFFF" transform="translate(300,240)"/>
<path d="M0 0 C4.95 0 9.9 0 15 0 C15 4.95 15 9.9 15 15 C10.05 15 5.1 15 0 15 C0 10.05 0 5.1 0 0 Z " fill="#EEEEEE" transform="translate(285,240)"/>
<path d="M0 0 C4.95 0 9.9 0 15 0 C15 4.95 15 9.9 15 15 C10.05 15 5.1 15 0 15 C0 10.05 0 5.1 0 0 Z " fill="#FFFFFF" transform="translate(270,240)"/>
<path d="M0 0 C4.95 0 9.9 0 15 0 C15 4.95 15 9.9 15 15 C10.05 15 5.1 15 0 15 C0 10.05 0 5.1 0 0 Z " fill="#EEEEEE" transform="translate(255,240)"/>
<path d="M0 0 C4.95 0 9.9 0 15 0 C15 4.95 15 9.9 15 15 C10.05 15 5.1 15 0 15 C0 10.05 0 5.1 0 0 Z " fill="#FFFFFF" transform="translate(240,240)"/>
<path d="M0 0 C4.95 0 9.9 0 15 0 C15 4.95 15 9.9 15 15 C10.05 15 5.1 15 0 15 C0 10.05 0 5.1 0 0 Z " fill="#EEEEEE" transform="translate(225,240)"/>
<path d="M0 0 C4.95 0 9.9 0 15 0 C15 4.95 15 9.9 15 15 C10.05 15 5.1 15 0 15 C0 10.05 0 5.1 0 0 Z " fill="#FFFFFF" transform="translate(210,240)"/>
<path d="M0 0 C4.95 0 9.9 0 15 0 C15 4.95 15 9.9 15 15 C10.05 15 5.1 15 0 15 C0 10.05 0 5.1 0 0 Z " fill="#EEEEEE" transform="translate(195,240)"/>
<path d="M0 0 C4.95 0 9.9 0 15 0 C15 4.95 15 9.9 15 15 C10.05 15 5.1 15 0 15 C0 10.05 0 5.1 0 0 Z " fill="#FFFFFF" transform="translate(180,240)"/>
<path d="M0 0 C4.95 0 9.9 0 15 0 C15 4.95 15 9.9 15 15 C10.05 15 5.1 15 0 15 C0 10.05 0 5.1 0 0 Z " fill="#FFFFFF" transform="translate(120,240)"/>
<path d="M0 0 C4.95 0 9.9 0 15 0 C15 4.95 15 9.9 15 15 C10.05 15 5.1 15 0 15 C0 10.05 0 5.1 0 0 Z " fill="#FFFFFF" transform="translate(90,240)"/>
<path d="M0 0 C4.95 0 9.9 0 15 0 C15 4.95 15 9.9 15 15 C10.05 15 5.1 15 0 15 C0 10.05 0 5.1 0 0 Z " fill="#EEEEEE" transform="translate(75,240)"/>
<path d="M0 0 C4.95 0 9.9 0 15 0 C15 4.95 15 9.9 15 15 C10.05 15 5.1 15 0 15 C0 10.05 0 5.1 0 0 Z " fill="#FFFFFF" transform="translate(60,240)"/>
<path d="M0 0 C4.95 0 9.9 0 15 0 C15 4.95 15 9.9 15 15 C10.05 15 5.1 15 0 15 C0 10.05 0 5.1 0 0 Z " fill="#EEEEEE" transform="translate(45,240)"/>
<path d="M0 0 C4.95 0 9.9 0 15 0 C15 4.95 15 9.9 15 15 C10.05 15 5.1 15 0 15 C0 10.05 0 5.1 0 0 Z " fill="#FFFFFF" transform="translate(30,240)"/>
<path d="M0 0 C4.95 0 9.9 0 15 0 C15 4.95 15 9.9 15 15 C10.05 15 5.1 15 0 15 C0 10.05 0 5.1 0 0 Z " fill="#EEEEEE" transform="translate(15,240)"/>
<path d="M0 0 C4.95 0 9.9 0 15 0 C15 4.95 15 9.9 15 15 C10.05 15 5.1 15 0 15 C0 10.05 0 5.1 0 0 Z " fill="#FFFFFF" transform="translate(0,240)"/>
<path d="M0 0 C4.95 0 9.9 0 15 0 C15 4.95 15 9.9 15 15 C10.05 15 5.1 15 0 15 C0 10.05 0 5.1 0 0 Z " fill="#FFFFFF" transform="translate(345,225)"/>
<path d="M0 0 C4.95 0 9.9 0 15 0 C15 4.95 15 9.9 15 15 C10.05 15 5.1 15 0 15 C0 10.05 0 5.1 0 0 Z " fill="#EEEEEE" transform="translate(330,225)"/>
<path d="M0 0 C4.95 0 9.9 0 15 0 C15 4.95 15 9.9 15 15 C10.05 15 5.1 15 0 15 C0 10.05 0 5.1 0 0 Z " fill="#FFFFFF" transform="translate(315,225)"/>
<path d="M0 0 C4.95 0 9.9 0 15 0 C15 4.95 15 9.9 15 15 C10.05 15 5.1 15 0 15 C0 10.05 0 5.1 0 0 Z " fill="#EEEEEE" transform="translate(300,225)"/>
<path d="M0 0 C4.95 0 9.9 0 15 0 C15 4.95 15 9.9 15 15 C10.05 15 5.1 15 0 15 C0 10.05 0 5.1 0 0 Z " fill="#FFFFFF" transform="translate(285,225)"/>
<path d="M0 0 C4.95 0 9.9 0 15 0 C15 4.95 15 9.9 15 15 C10.05 15 5.1 15 0 15 C0 10.05 0 5.1 0 0 Z " fill="#EEEEEE" transform="translate(270,225)"/>
<path d="M0 0 C4.95 0 9.9 0 15 0 C15 4.95 15 9.9 15 15 C10.05 15 5.1 15 0 15 C0 10.05 0 5.1 0 0 Z " fill="#FFFFFF" transform="translate(255,225)"/>
<path d="M0 0 C4.95 0 9.9 0 15 0 C15 4.95 15 9.9 15 15 C10.05 15 5.1 15 0 15 C0 10.05 0 5.1 0 0 Z " fill="#EEEEEE" transform="translate(210,225)"/>
<path d="M0 0 C4.95 0 9.9 0 15 0 C15 4.95 15 9.9 15 15 C10.05 15 5.1 15 0 15 C0 10.05 0 5.1 0 0 Z " fill="#FFFFFF" transform="translate(195,225)"/>
<path d="M0 0 C4.95 0 9.9 0 15 0 C15 4.95 15 9.9 15 15 C10.05 15 5.1 15 0 15 C0 10.05 0 5.1 0 0 Z " fill="#EEEEEE" transform="translate(180,225)"/>
<path d="M0 0 C4.95 0 9.9 0 15 0 C15 4.95 15 9.9 15 15 C10.05 15 5.1 15 0 15 C0 10.05 0 5.1 0 0 Z " fill="#FFFFFF" transform="translate(75,225)"/>
<path d="M0 0 C4.95 0 9.9 0 15 0 C15 4.95 15 9.9 15 15 C10.05 15 5.1 15 0 15 C0 10.05 0 5.1 0 0 Z " fill="#EEEEEE" transform="translate(60,225)"/>
<path d="M0 0 C4.95 0 9.9 0 15 0 C15 4.95 15 9.9 15 15 C10.05 15 5.1 15 0 15 C0 10.05 0 5.1 0 0 Z " fill="#FFFFFF" transform="translate(45,225)"/>
<path d="M0 0 C4.95 0 9.9 0 15 0 C15 4.95 15 9.9 15 15 C10.05 15 5.1 15 0 15 C0 10.05 0 5.1 0 0 Z " fill="#EEEEEE" transform="translate(30,225)"/>
<path d="M0 0 C4.95 0 9.9 0 15 0 C15 4.95 15 9.9 15 15 C10.05 15 5.1 15 0 15 C0 10.05 0 5.1 0 0 Z " fill="#FFFFFF" transform="translate(15,225)"/>
<path d="M0 0 C4.95 0 9.9 0 15 0 C15 4.95 15 9.9 15 15 C10.05 15 5.1 15 0 15 C0 10.05 0 5.1 0 0 Z " fill="#EEEEEE" transform="translate(0,225)"/>
<path d="M0 0 C4.95 0 9.9 0 15 0 C15 4.95 15 9.9 15 15 C10.05 15 5.1 15 0 15 C0 10.05 0 5.1 0 0 Z " fill="#EEEEEE" transform="translate(345,210)"/>
<path d="M0 0 C4.95 0 9.9 0 15 0 C15 4.95 15 9.9 15 15 C10.05 15 5.1 15 0 15 C0 10.05 0 5.1 0 0 Z " fill="#FFFFFF" transform="translate(330,210)"/>
<path d="M0 0 C4.95 0 9.9 0 15 0 C15 4.95 15 9.9 15 15 C10.05 15 5.1 15 0 15 C0 10.05 0 5.1 0 0 Z " fill="#EEEEEE" transform="translate(315,210)"/>
<path d="M0 0 C4.95 0 9.9 0 15 0 C15 4.95 15 9.9 15 15 C10.05 15 5.1 15 0 15 C0 10.05 0 5.1 0 0 Z " fill="#FFFFFF" transform="translate(300,210)"/>
<path d="M0 0 C4.95 0 9.9 0 15 0 C15 4.95 15 9.9 15 15 C10.05 15 5.1 15 0 15 C0 10.05 0 5.1 0 0 Z " fill="#EEEEEE" transform="translate(285,210)"/>
<path d="M0 0 C4.95 0 9.9 0 15 0 C15 4.95 15 9.9 15 15 C10.05 15 5.1 15 0 15 C0 10.05 0 5.1 0 0 Z " fill="#FFFFFF" transform="translate(270,210)"/>
<path d="M0 0 C4.95 0 9.9 0 15 0 C15 4.95 15 9.9 15 15 C10.05 15 5.1 15 0 15 C0 10.05 0 5.1 0 0 Z " fill="#FFFFFF" transform="translate(210,210)"/>
<path d="M0 0 C4.95 0 9.9 0 15 0 C15 4.95 15 9.9 15 15 C10.05 15 5.1 15 0 15 C0 10.05 0 5.1 0 0 Z " fill="#FFFFFF" transform="translate(180,210)"/>
<path d="M0 0 C4.95 0 9.9 0 15 0 C15 4.95 15 9.9 15 15 C10.05 15 5.1 15 0 15 C0 10.05 0 5.1 0 0 Z " fill="#FFFFFF" transform="translate(60,210)"/>
<path d="M0 0 C4.95 0 9.9 0 15 0 C15 4.95 15 9.9 15 15 C10.05 15 5.1 15 0 15 C0 10.05 0 5.1 0 0 Z " fill="#EEEEEE" transform="translate(45,210)"/>
<path d="M0 0 C4.95 0 9.9 0 15 0 C15 4.95 15 9.9 15 15 C10.05 15 5.1 15 0 15 C0 10.05 0 5.1 0 0 Z " fill="#FFFFFF" transform="translate(30,210)"/>
<path d="M0 0 C4.95 0 9.9 0 15 0 C15 4.95 15 9.9 15 15 C10.05 15 5.1 15 0 15 C0 10.05 0 5.1 0 0 Z " fill="#EEEEEE" transform="translate(15,210)"/>
<path d="M0 0 C4.95 0 9.9 0 15 0 C15 4.95 15 9.9 15 15 C10.05 15 5.1 15 0 15 C0 10.05 0 5.1 0 0 Z " fill="#FFFFFF" transform="translate(0,210)"/>
<path d="M0 0 C4.95 0 9.9 0 15 0 C15 4.95 15 9.9 15 15 C10.05 15 5.1 15 0 15 C0 10.05 0 5.1 0 0 Z " fill="#FFFFFF" transform="translate(345,195)"/>
<path d="M0 0 C4.95 0 9.9 0 15 0 C15 4.95 15 9.9 15 15 C10.05 15 5.1 15 0 15 C0 10.05 0 5.1 0 0 Z " fill="#EEEEEE" transform="translate(330,195)"/>
<path d="M0 0 C4.95 0 9.9 0 15 0 C15 4.95 15 9.9 15 15 C10.05 15 5.1 15 0 15 C0 10.05 0 5.1 0 0 Z " fill="#FFFFFF" transform="translate(315,195)"/>
<path d="M0 0 C4.95 0 9.9 0 15 0 C15 4.95 15 9.9 15 15 C10.05 15 5.1 15 0 15 C0 10.05 0 5.1 0 0 Z " fill="#EEEEEE" transform="translate(300,195)"/>
<path d="M0 0 C4.95 0 9.9 0 15 0 C15 4.95 15 9.9 15 15 C10.05 15 5.1 15 0 15 C0 10.05 0 5.1 0 0 Z " fill="#FFFFFF" transform="translate(285,195)"/>
<path d="M0 0 C4.95 0 9.9 0 15 0 C15 4.95 15 9.9 15 15 C10.05 15 5.1 15 0 15 C0 10.05 0 5.1 0 0 Z " fill="#EEEEEE" transform="translate(210,195)"/>
<path d="M0 0 C4.95 0 9.9 0 15 0 C15 4.95 15 9.9 15 15 C10.05 15 5.1 15 0 15 C0 10.05 0 5.1 0 0 Z " fill="#FFFFFF" transform="translate(195,195)"/>
<path d="M0 0 C4.95 0 9.9 0 15 0 C15 4.95 15 9.9 15 15 C10.05 15 5.1 15 0 15 C0 10.05 0 5.1 0 0 Z " fill="#FFFFFF" transform="translate(135,195)"/>
<path d="M0 0 C4.95 0 9.9 0 15 0 C15 4.95 15 9.9 15 15 C10.05 15 5.1 15 0 15 C0 10.05 0 5.1 0 0 Z " fill="#FFFFFF" transform="translate(45,195)"/>
<path d="M0 0 C4.95 0 9.9 0 15 0 C15 4.95 15 9.9 15 15 C10.05 15 5.1 15 0 15 C0 10.05 0 5.1 0 0 Z " fill="#EEEEEE" transform="translate(30,195)"/>
<path d="M0 0 C4.95 0 9.9 0 15 0 C15 4.95 15 9.9 15 15 C10.05 15 5.1 15 0 15 C0 10.05 0 5.1 0 0 Z " fill="#FFFFFF" transform="translate(15,195)"/>
<path d="M0 0 C4.95 0 9.9 0 15 0 C15 4.95 15 9.9 15 15 C10.05 15 5.1 15 0 15 C0 10.05 0 5.1 0 0 Z " fill="#EEEEEE" transform="translate(0,195)"/>
<path d="M0 0 C4.95 0 9.9 0 15 0 C15 4.95 15 9.9 15 15 C10.05 15 5.1 15 0 15 C0 10.05 0 5.1 0 0 Z " fill="#EEEEEE" transform="translate(345,180)"/>
<path d="M0 0 C4.95 0 9.9 0 15 0 C15 4.95 15 9.9 15 15 C10.05 15 5.1 15 0 15 C0 10.05 0 5.1 0 0 Z " fill="#FFFFFF" transform="translate(330,180)"/>
<path d="M0 0 C4.95 0 9.9 0 15 0 C15 4.95 15 9.9 15 15 C10.05 15 5.1 15 0 15 C0 10.05 0 5.1 0 0 Z " fill="#FFFFFF" transform="translate(300,180)"/>
<path d="M0 0 C4.95 0 9.9 0 15 0 C15 4.95 15 9.9 15 15 C10.05 15 5.1 15 0 15 C0 10.05 0 5.1 0 0 Z " fill="#EEEEEE" transform="translate(225,180)"/>
<path d="M0 0 C4.95 0 9.9 0 15 0 C15 4.95 15 9.9 15 15 C10.05 15 5.1 15 0 15 C0 10.05 0 5.1 0 0 Z " fill="#FFFFFF" transform="translate(210,180)"/>
<path d="M0 0 C4.95 0 9.9 0 15 0 C15 4.95 15 9.9 15 15 C10.05 15 5.1 15 0 15 C0 10.05 0 5.1 0 0 Z " fill="#EEEEEE" transform="translate(195,180)"/>
<path d="M0 0 C4.95 0 9.9 0 15 0 C15 4.95 15 9.9 15 15 C10.05 15 5.1 15 0 15 C0 10.05 0 5.1 0 0 Z " fill="#FFFFFF" transform="translate(120,180)"/>
<path d="M0 0 C4.95 0 9.9 0 15 0 C15 4.95 15 9.9 15 15 C10.05 15 5.1 15 0 15 C0 10.05 0 5.1 0 0 Z " fill="#FFFFFF" transform="translate(30,180)"/>
<path d="M0 0 C4.95 0 9.9 0 15 0 C15 4.95 15 9.9 15 15 C10.05 15 5.1 15 0 15 C0 10.05 0 5.1 0 0 Z " fill="#EEEEEE" transform="translate(15,180)"/>
<path d="M0 0 C4.95 0 9.9 0 15 0 C15 4.95 15 9.9 15 15 C10.05 15 5.1 15 0 15 C0 10.05 0 5.1 0 0 Z " fill="#FFFFFF" transform="translate(0,180)"/>
<path d="M0 0 C4.95 0 9.9 0 15 0 C15 4.95 15 9.9 15 15 C10.05 15 5.1 15 0 15 C0 10.05 0 5.1 0 0 Z " fill="#FFFFFF" transform="translate(345,165)"/>
<path d="M0 0 C4.95 0 9.9 0 15 0 C15 4.95 15 9.9 15 15 C10.05 15 5.1 15 0 15 C0 10.05 0 5.1 0 0 Z " fill="#FFFFFF" transform="translate(315,165)"/>
<path d="M0 0 C4.95 0 9.9 0 15 0 C15 4.95 15 9.9 15 15 C10.05 15 5.1 15 0 15 C0 10.05 0 5.1 0 0 Z " fill="#EEEEEE" transform="translate(240,165)"/>
<path d="M0 0 C4.95 0 9.9 0 15 0 C15 4.95 15 9.9 15 15 C10.05 15 5.1 15 0 15 C0 10.05 0 5.1 0 0 Z " fill="#FFFFFF" transform="translate(225,165)"/>
<path d="M0 0 C4.95 0 9.9 0 15 0 C15 4.95 15 9.9 15 15 C10.05 15 5.1 15 0 15 C0 10.05 0 5.1 0 0 Z " fill="#EEEEEE" transform="translate(210,165)"/>
<path d="M0 0 C4.95 0 9.9 0 15 0 C15 4.95 15 9.9 15 15 C10.05 15 5.1 15 0 15 C0 10.05 0 5.1 0 0 Z " fill="#FFFFFF" transform="translate(195,165)"/>
<path d="M0 0 C4.95 0 9.9 0 15 0 C15 4.95 15 9.9 15 15 C10.05 15 5.1 15 0 15 C0 10.05 0 5.1 0 0 Z " fill="#FFFFFF" transform="translate(135,165)"/>
<path d="M0 0 C4.95 0 9.9 0 15 0 C15 4.95 15 9.9 15 15 C10.05 15 5.1 15 0 15 C0 10.05 0 5.1 0 0 Z " fill="#EEEEEE" transform="translate(120,165)"/>
<path d="M0 0 C4.95 0 9.9 0 15 0 C15 4.95 15 9.9 15 15 C10.05 15 5.1 15 0 15 C0 10.05 0 5.1 0 0 Z " fill="#FFFFFF" transform="translate(105,165)"/>
<path d="M0 0 C4.95 0 9.9 0 15 0 C15 4.95 15 9.9 15 15 C10.05 15 5.1 15 0 15 C0 10.05 0 5.1 0 0 Z " fill="#FFFFFF" transform="translate(15,165)"/>
<path d="M0 0 C4.95 0 9.9 0 15 0 C15 4.95 15 9.9 15 15 C10.05 15 5.1 15 0 15 C0 10.05 0 5.1 0 0 Z " fill="#EEEEEE" transform="translate(0,165)"/>
<path d="M0 0 C4.95 0 9.9 0 15 0 C15 4.95 15 9.9 15 15 C10.05 15 5.1 15 0 15 C0 10.05 0 5.1 0 0 Z " fill="#EEEEEE" transform="translate(345,150)"/>
<path d="M0 0 C4.95 0 9.9 0 15 0 C15 4.95 15 9.9 15 15 C10.05 15 5.1 15 0 15 C0 10.05 0 5.1 0 0 Z " fill="#FFFFFF" transform="translate(330,150)"/>
<path d="M0 0 C4.95 0 9.9 0 15 0 C15 4.95 15 9.9 15 15 C10.05 15 5.1 15 0 15 C0 10.05 0 5.1 0 0 Z " fill="#EEEEEE" transform="translate(255,150)"/>
<path d="M0 0 C4.95 0 9.9 0 15 0 C15 4.95 15 9.9 15 15 C10.05 15 5.1 15 0 15 C0 10.05 0 5.1 0 0 Z " fill="#FFFFFF" transform="translate(240,150)"/>
<path d="M0 0 C4.95 0 9.9 0 15 0 C15 4.95 15 9.9 15 15 C10.05 15 5.1 15 0 15 C0 10.05 0 5.1 0 0 Z " fill="#EEEEEE" transform="translate(225,150)"/>
<path d="M0 0 C4.95 0 9.9 0 15 0 C15 4.95 15 9.9 15 15 C10.05 15 5.1 15 0 15 C0 10.05 0 5.1 0 0 Z " fill="#FFFFFF" transform="translate(210,150)"/>
<path d="M0 0 C4.95 0 9.9 0 15 0 C15 4.95 15 9.9 15 15 C10.05 15 5.1 15 0 15 C0 10.05 0 5.1 0 0 Z " fill="#EEEEEE" transform="translate(195,150)"/>
<path d="M0 0 C4.95 0 9.9 0 15 0 C15 4.95 15 9.9 15 15 C10.05 15 5.1 15 0 15 C0 10.05 0 5.1 0 0 Z " fill="#FFFFFF" transform="translate(120,150)"/>
<path d="M0 0 C4.95 0 9.9 0 15 0 C15 4.95 15 9.9 15 15 C10.05 15 5.1 15 0 15 C0 10.05 0 5.1 0 0 Z " fill="#EEEEEE" transform="translate(105,150)"/>
<path d="M0 0 C4.95 0 9.9 0 15 0 C15 4.95 15 9.9 15 15 C10.05 15 5.1 15 0 15 C0 10.05 0 5.1 0 0 Z " fill="#FFFFFF" transform="translate(90,150)"/>
<path d="M0 0 C4.95 0 9.9 0 15 0 C15 4.95 15 9.9 15 15 C10.05 15 5.1 15 0 15 C0 10.05 0 5.1 0 0 Z " fill="#EEEEEE" transform="translate(15,150)"/>
<path d="M0 0 C4.95 0 9.9 0 15 0 C15 4.95 15 9.9 15 15 C10.05 15 5.1 15 0 15 C0 10.05 0 5.1 0 0 Z " fill="#FFFFFF" transform="translate(0,150)"/>
<path d="M0 0 C4.95 0 9.9 0 15 0 C15 4.95 15 9.9 15 15 C10.05 15 5.1 15 0 15 C0 10.05 0 5.1 0 0 Z " fill="#FFFFFF" transform="translate(345,135)"/>
<path d="M0 0 C4.95 0 9.9 0 15 0 C15 4.95 15 9.9 15 15 C10.05 15 5.1 15 0 15 C0 10.05 0 5.1 0 0 Z " fill="#EEEEEE" transform="translate(330,135)"/>
<path d="M0 0 C4.95 0 9.9 0 15 0 C15 4.95 15 9.9 15 15 C10.05 15 5.1 15 0 15 C0 10.05 0 5.1 0 0 Z " fill="#FFFFFF" transform="translate(255,135)"/>
<path d="M0 0 C4.95 0 9.9 0 15 0 C15 4.95 15 9.9 15 15 C10.05 15 5.1 15 0 15 C0 10.05 0 5.1 0 0 Z " fill="#EEEEEE" transform="translate(240,135)"/>
<path d="M0 0 C4.95 0 9.9 0 15 0 C15 4.95 15 9.9 15 15 C10.05 15 5.1 15 0 15 C0 10.05 0 5.1 0 0 Z " fill="#FFFFFF" transform="translate(225,135)"/>
<path d="M0 0 C4.95 0 9.9 0 15 0 C15 4.95 15 9.9 15 15 C10.05 15 5.1 15 0 15 C0 10.05 0 5.1 0 0 Z " fill="#EEEEEE" transform="translate(210,135)"/>
<path d="M0 0 C4.95 0 9.9 0 15 0 C15 4.95 15 9.9 15 15 C10.05 15 5.1 15 0 15 C0 10.05 0 5.1 0 0 Z " fill="#EEEEEE" transform="translate(150,135)"/>
<path d="M0 0 C4.95 0 9.9 0 15 0 C15 4.95 15 9.9 15 15 C10.05 15 5.1 15 0 15 C0 10.05 0 5.1 0 0 Z " fill="#FFFFFF" transform="translate(135,135)"/>
<path d="M0 0 C4.95 0 9.9 0 15 0 C15 4.95 15 9.9 15 15 C10.05 15 5.1 15 0 15 C0 10.05 0 5.1 0 0 Z " fill="#EEEEEE" transform="translate(120,135)"/>
<path d="M0 0 C4.95 0 9.9 0 15 0 C15 4.95 15 9.9 15 15 C10.05 15 5.1 15 0 15 C0 10.05 0 5.1 0 0 Z " fill="#FFFFFF" transform="translate(105,135)"/>
<path d="M0 0 C4.95 0 9.9 0 15 0 C15 4.95 15 9.9 15 15 C10.05 15 5.1 15 0 15 C0 10.05 0 5.1 0 0 Z " fill="#EEEEEE" transform="translate(90,135)"/>
<path d="M0 0 C4.95 0 9.9 0 15 0 C15 4.95 15 9.9 15 15 C10.05 15 5.1 15 0 15 C0 10.05 0 5.1 0 0 Z " fill="#FFFFFF" transform="translate(15,135)"/>
<path d="M0 0 C4.95 0 9.9 0 15 0 C15 4.95 15 9.9 15 15 C10.05 15 5.1 15 0 15 C0 10.05 0 5.1 0 0 Z " fill="#EEEEEE" transform="translate(0,135)"/>
<path d="M0 0 C4.95 0 9.9 0 15 0 C15 4.95 15 9.9 15 15 C10.05 15 5.1 15 0 15 C0 10.05 0 5.1 0 0 Z " fill="#EEEEEE" transform="translate(345,120)"/>
<path d="M0 0 C4.95 0 9.9 0 15 0 C15 4.95 15 9.9 15 15 C10.05 15 5.1 15 0 15 C0 10.05 0 5.1 0 0 Z " fill="#FFFFFF" transform="translate(330,120)"/>
<path d="M0 0 C4.95 0 9.9 0 15 0 C15 4.95 15 9.9 15 15 C10.05 15 5.1 15 0 15 C0 10.05 0 5.1 0 0 Z " fill="#EEEEEE" transform="translate(315,120)"/>
<path d="M0 0 C4.95 0 9.9 0 15 0 C15 4.95 15 9.9 15 15 C10.05 15 5.1 15 0 15 C0 10.05 0 5.1 0 0 Z " fill="#FFFFFF" transform="translate(240,120)"/>
<path d="M0 0 C4.95 0 9.9 0 15 0 C15 4.95 15 9.9 15 15 C10.05 15 5.1 15 0 15 C0 10.05 0 5.1 0 0 Z " fill="#EEEEEE" transform="translate(225,120)"/>
<path d="M0 0 C4.95 0 9.9 0 15 0 C15 4.95 15 9.9 15 15 C10.05 15 5.1 15 0 15 C0 10.05 0 5.1 0 0 Z " fill="#FFFFFF" transform="translate(210,120)"/>
<path d="M0 0 C4.95 0 9.9 0 15 0 C15 4.95 15 9.9 15 15 C10.05 15 5.1 15 0 15 C0 10.05 0 5.1 0 0 Z " fill="#FFFFFF" transform="translate(150,120)"/>
<path d="M0 0 C4.95 0 9.9 0 15 0 C15 4.95 15 9.9 15 15 C10.05 15 5.1 15 0 15 C0 10.05 0 5.1 0 0 Z " fill="#EEEEEE" transform="translate(135,120)"/>
<path d="M0 0 C4.95 0 9.9 0 15 0 C15 4.95 15 9.9 15 15 C10.05 15 5.1 15 0 15 C0 10.05 0 5.1 0 0 Z " fill="#FFFFFF" transform="translate(120,120)"/>
<path d="M0 0 C4.95 0 9.9 0 15 0 C15 4.95 15 9.9 15 15 C10.05 15 5.1 15 0 15 C0 10.05 0 5.1 0 0 Z " fill="#EEEEEE" transform="translate(105,120)"/>
<path d="M0 0 C4.95 0 9.9 0 15 0 C15 4.95 15 9.9 15 15 C10.05 15 5.1 15 0 15 C0 10.05 0 5.1 0 0 Z " fill="#FFFFFF" transform="translate(30,120)"/>
<path d="M0 0 C4.95 0 9.9 0 15 0 C15 4.95 15 9.9 15 15 C10.05 15 5.1 15 0 15 C0 10.05 0 5.1 0 0 Z " fill="#EEEEEE" transform="translate(15,120)"/>
<path d="M0 0 C4.95 0 9.9 0 15 0 C15 4.95 15 9.9 15 15 C10.05 15 5.1 15 0 15 C0 10.05 0 5.1 0 0 Z " fill="#FFFFFF" transform="translate(0,120)"/>
<path d="M0 0 C4.95 0 9.9 0 15 0 C15 4.95 15 9.9 15 15 C10.05 15 5.1 15 0 15 C0 10.05 0 5.1 0 0 Z " fill="#FFFFFF" transform="translate(345,105)"/>
<path d="M0 0 C4.95 0 9.9 0 15 0 C15 4.95 15 9.9 15 15 C10.05 15 5.1 15 0 15 C0 10.05 0 5.1 0 0 Z " fill="#EEEEEE" transform="translate(330,105)"/>
<path d="M0 0 C4.95 0 9.9 0 15 0 C15 4.95 15 9.9 15 15 C10.05 15 5.1 15 0 15 C0 10.05 0 5.1 0 0 Z " fill="#FFFFFF" transform="translate(315,105)"/>
<path d="M0 0 C4.95 0 9.9 0 15 0 C15 4.95 15 9.9 15 15 C10.05 15 5.1 15 0 15 C0 10.05 0 5.1 0 0 Z " fill="#EEEEEE" transform="translate(300,105)"/>
<path d="M0 0 C4.95 0 9.9 0 15 0 C15 4.95 15 9.9 15 15 C10.05 15 5.1 15 0 15 C0 10.05 0 5.1 0 0 Z " fill="#FFFFFF" transform="translate(225,105)"/>
<path d="M0 0 C4.95 0 9.9 0 15 0 C15 4.95 15 9.9 15 15 C10.05 15 5.1 15 0 15 C0 10.05 0 5.1 0 0 Z " fill="#EEEEEE" transform="translate(150,105)"/>
<path d="M0 0 C4.95 0 9.9 0 15 0 C15 4.95 15 9.9 15 15 C10.05 15 5.1 15 0 15 C0 10.05 0 5.1 0 0 Z " fill="#FFFFFF" transform="translate(135,105)"/>
<path d="M0 0 C4.95 0 9.9 0 15 0 C15 4.95 15 9.9 15 15 C10.05 15 5.1 15 0 15 C0 10.05 0 5.1 0 0 Z " fill="#EEEEEE" transform="translate(120,105)"/>
<path d="M0 0 C4.95 0 9.9 0 15 0 C15 4.95 15 9.9 15 15 C10.05 15 5.1 15 0 15 C0 10.05 0 5.1 0 0 Z " fill="#FFFFFF" transform="translate(45,105)"/>
<path d="M0 0 C4.95 0 9.9 0 15 0 C15 4.95 15 9.9 15 15 C10.05 15 5.1 15 0 15 C0 10.05 0 5.1 0 0 Z " fill="#EEEEEE" transform="translate(30,105)"/>
<path d="M0 0 C4.95 0 9.9 0 15 0 C15 4.95 15 9.9 15 15 C10.05 15 5.1 15 0 15 C0 10.05 0 5.1 0 0 Z " fill="#FFFFFF" transform="translate(15,105)"/>
<path d="M0 0 C4.95 0 9.9 0 15 0 C15 4.95 15 9.9 15 15 C10.05 15 5.1 15 0 15 C0 10.05 0 5.1 0 0 Z " fill="#EEEEEE" transform="translate(0,105)"/>
<path d="M0 0 C4.95 0 9.9 0 15 0 C15 4.95 15 9.9 15 15 C10.05 15 5.1 15 0 15 C0 10.05 0 5.1 0 0 Z " fill="#EEEEEE" transform="translate(345,90)"/>
<path d="M0 0 C4.95 0 9.9 0 15 0 C15 4.95 15 9.9 15 15 C10.05 15 5.1 15 0 15 C0 10.05 0 5.1 0 0 Z " fill="#FFFFFF" transform="translate(330,90)"/>
<path d="M0 0 C4.95 0 9.9 0 15 0 C15 4.95 15 9.9 15 15 C10.05 15 5.1 15 0 15 C0 10.05 0 5.1 0 0 Z " fill="#EEEEEE" transform="translate(315,90)"/>
<path d="M0 0 C4.95 0 9.9 0 15 0 C15 4.95 15 9.9 15 15 C10.05 15 5.1 15 0 15 C0 10.05 0 5.1 0 0 Z " fill="#FFFFFF" transform="translate(300,90)"/>
<path d="M0 0 C4.95 0 9.9 0 15 0 C15 4.95 15 9.9 15 15 C10.05 15 5.1 15 0 15 C0 10.05 0 5.1 0 0 Z " fill="#EEEEEE" transform="translate(285,90)"/>
<path d="M0 0 C4.95 0 9.9 0 15 0 C15 4.95 15 9.9 15 15 C10.05 15 5.1 15 0 15 C0 10.05 0 5.1 0 0 Z " fill="#FFFFFF" transform="translate(210,90)"/>
<path d="M0 0 C4.95 0 9.9 0 15 0 C15 4.95 15 9.9 15 15 C10.05 15 5.1 15 0 15 C0 10.05 0 5.1 0 0 Z " fill="#EEEEEE" transform="translate(135,90)"/>
<path d="M0 0 C4.95 0 9.9 0 15 0 C15 4.95 15 9.9 15 15 C10.05 15 5.1 15 0 15 C0 10.05 0 5.1 0 0 Z " fill="#FFFFFF" transform="translate(60,90)"/>
<path d="M0 0 C4.95 0 9.9 0 15 0 C15 4.95 15 9.9 15 15 C10.05 15 5.1 15 0 15 C0 10.05 0 5.1 0 0 Z " fill="#EEEEEE" transform="translate(45,90)"/>
<path d="M0 0 C4.95 0 9.9 0 15 0 C15 4.95 15 9.9 15 15 C10.05 15 5.1 15 0 15 C0 10.05 0 5.1 0 0 Z " fill="#FFFFFF" transform="translate(30,90)"/>
<path d="M0 0 C4.95 0 9.9 0 15 0 C15 4.95 15 9.9 15 15 C10.05 15 5.1 15 0 15 C0 10.05 0 5.1 0 0 Z " fill="#EEEEEE" transform="translate(15,90)"/>
<path d="M0 0 C4.95 0 9.9 0 15 0 C15 4.95 15 9.9 15 15 C10.05 15 5.1 15 0 15 C0 10.05 0 5.1 0 0 Z " fill="#FFFFFF" transform="translate(0,90)"/>
<path d="M0 0 C4.95 0 9.9 0 15 0 C15 4.95 15 9.9 15 15 C10.05 15 5.1 15 0 15 C0 10.05 0 5.1 0 0 Z " fill="#FFFFFF" transform="translate(345,75)"/>
<path d="M0 0 C4.95 0 9.9 0 15 0 C15 4.95 15 9.9 15 15 C10.05 15 5.1 15 0 15 C0 10.05 0 5.1 0 0 Z " fill="#EEEEEE" transform="translate(330,75)"/>
<path d="M0 0 C4.95 0 9.9 0 15 0 C15 4.95 15 9.9 15 15 C10.05 15 5.1 15 0 15 C0 10.05 0 5.1 0 0 Z " fill="#FFFFFF" transform="translate(315,75)"/>
<path d="M0 0 C4.95 0 9.9 0 15 0 C15 4.95 15 9.9 15 15 C10.05 15 5.1 15 0 15 C0 10.05 0 5.1 0 0 Z " fill="#EEEEEE" transform="translate(300,75)"/>
<path d="M0 0 C4.95 0 9.9 0 15 0 C15 4.95 15 9.9 15 15 C10.05 15 5.1 15 0 15 C0 10.05 0 5.1 0 0 Z " fill="#FFFFFF" transform="translate(285,75)"/>
<path d="M0 0 C4.95 0 9.9 0 15 0 C15 4.95 15 9.9 15 15 C10.05 15 5.1 15 0 15 C0 10.05 0 5.1 0 0 Z " fill="#EEEEEE" transform="translate(270,75)"/>
<path d="M0 0 C4.95 0 9.9 0 15 0 C15 4.95 15 9.9 15 15 C10.05 15 5.1 15 0 15 C0 10.05 0 5.1 0 0 Z " fill="#FFFFFF" transform="translate(165,75)"/>
<path d="M0 0 C4.95 0 9.9 0 15 0 C15 4.95 15 9.9 15 15 C10.05 15 5.1 15 0 15 C0 10.05 0 5.1 0 0 Z " fill="#EEEEEE" transform="translate(150,75)"/>
<path d="M0 0 C4.95 0 9.9 0 15 0 C15 4.95 15 9.9 15 15 C10.05 15 5.1 15 0 15 C0 10.05 0 5.1 0 0 Z " fill="#FFFFFF" transform="translate(75,75)"/>
<path d="M0 0 C4.95 0 9.9 0 15 0 C15 4.95 15 9.9 15 15 C10.05 15 5.1 15 0 15 C0 10.05 0 5.1 0 0 Z " fill="#EEEEEE" transform="translate(60,75)"/>
<path d="M0 0 C4.95 0 9.9 0 15 0 C15 4.95 15 9.9 15 15 C10.05 15 5.1 15 0 15 C0 10.05 0 5.1 0 0 Z " fill="#FFFFFF" transform="translate(45,75)"/>
<path d="M0 0 C4.95 0 9.9 0 15 0 C15 4.95 15 9.9 15 15 C10.05 15 5.1 15 0 15 C0 10.05 0 5.1 0 0 Z " fill="#EEEEEE" transform="translate(30,75)"/>
<path d="M0 0 C4.95 0 9.9 0 15 0 C15 4.95 15 9.9 15 15 C10.05 15 5.1 15 0 15 C0 10.05 0 5.1 0 0 Z " fill="#FFFFFF" transform="translate(15,75)"/>
<path d="M0 0 C4.95 0 9.9 0 15 0 C15 4.95 15 9.9 15 15 C10.05 15 5.1 15 0 15 C0 10.05 0 5.1 0 0 Z " fill="#EEEEEE" transform="translate(0,75)"/>
<path d="M0 0 C4.95 0 9.9 0 15 0 C15 4.95 15 9.9 15 15 C10.05 15 5.1 15 0 15 C0 10.05 0 5.1 0 0 Z " fill="#EEEEEE" transform="translate(345,60)"/>
<path d="M0 0 C4.95 0 9.9 0 15 0 C15 4.95 15 9.9 15 15 C10.05 15 5.1 15 0 15 C0 10.05 0 5.1 0 0 Z " fill="#FFFFFF" transform="translate(330,60)"/>
<path d="M0 0 C4.95 0 9.9 0 15 0 C15 4.95 15 9.9 15 15 C10.05 15 5.1 15 0 15 C0 10.05 0 5.1 0 0 Z " fill="#EEEEEE" transform="translate(315,60)"/>
<path d="M0 0 C4.95 0 9.9 0 15 0 C15 4.95 15 9.9 15 15 C10.05 15 5.1 15 0 15 C0 10.05 0 5.1 0 0 Z " fill="#FFFFFF" transform="translate(300,60)"/>
<path d="M0 0 C4.95 0 9.9 0 15 0 C15 4.95 15 9.9 15 15 C10.05 15 5.1 15 0 15 C0 10.05 0 5.1 0 0 Z " fill="#EEEEEE" transform="translate(285,60)"/>
<path d="M0 0 C4.95 0 9.9 0 15 0 C15 4.95 15 9.9 15 15 C10.05 15 5.1 15 0 15 C0 10.05 0 5.1 0 0 Z " fill="#FFFFFF" transform="translate(270,60)"/>
<path d="M0 0 C4.95 0 9.9 0 15 0 C15 4.95 15 9.9 15 15 C10.05 15 5.1 15 0 15 C0 10.05 0 5.1 0 0 Z " fill="#EEEEEE" transform="translate(255,60)"/>
<path d="M0 0 C4.95 0 9.9 0 15 0 C15 4.95 15 9.9 15 15 C10.05 15 5.1 15 0 15 C0 10.05 0 5.1 0 0 Z " fill="#FFFFFF" transform="translate(150,60)"/>
<path d="M0 0 C4.95 0 9.9 0 15 0 C15 4.95 15 9.9 15 15 C10.05 15 5.1 15 0 15 C0 10.05 0 5.1 0 0 Z " fill="#EEEEEE" transform="translate(135,60)"/>
<path d="M0 0 C4.95 0 9.9 0 15 0 C15 4.95 15 9.9 15 15 C10.05 15 5.1 15 0 15 C0 10.05 0 5.1 0 0 Z " fill="#FFFFFF" transform="translate(90,60)"/>
<path d="M0 0 C4.95 0 9.9 0 15 0 C15 4.95 15 9.9 15 15 C10.05 15 5.1 15 0 15 C0 10.05 0 5.1 0 0 Z " fill="#EEEEEE" transform="translate(75,60)"/>
<path d="M0 0 C4.95 0 9.9 0 15 0 C15 4.95 15 9.9 15 15 C10.05 15 5.1 15 0 15 C0 10.05 0 5.1 0 0 Z " fill="#FFFFFF" transform="translate(60,60)"/>
<path d="M0 0 C4.95 0 9.9 0 15 0 C15 4.95 15 9.9 15 15 C10.05 15 5.1 15 0 15 C0 10.05 0 5.1 0 0 Z " fill="#EEEEEE" transform="translate(45,60)"/>
<path d="M0 0 C4.95 0 9.9 0 15 0 C15 4.95 15 9.9 15 15 C10.05 15 5.1 15 0 15 C0 10.05 0 5.1 0 0 Z " fill="#FFFFFF" transform="translate(30,60)"/>
<path d="M0 0 C4.95 0 9.9 0 15 0 C15 4.95 15 9.9 15 15 C10.05 15 5.1 15 0 15 C0 10.05 0 5.1 0 0 Z " fill="#EEEEEE" transform="translate(15,60)"/>
<path d="M0 0 C4.95 0 9.9 0 15 0 C15 4.95 15 9.9 15 15 C10.05 15 5.1 15 0 15 C0 10.05 0 5.1 0 0 Z " fill="#FFFFFF" transform="translate(0,60)"/>
<path d="M0 0 C4.95 0 9.9 0 15 0 C15 4.95 15 9.9 15 15 C10.05 15 5.1 15 0 15 C0 10.05 0 5.1 0 0 Z " fill="#FFFFFF" transform="translate(345,45)"/>
<path d="M0 0 C4.95 0 9.9 0 15 0 C15 4.95 15 9.9 15 15 C10.05 15 5.1 15 0 15 C0 10.05 0 5.1 0 0 Z " fill="#EEEEEE" transform="translate(330,45)"/>
<path d="M0 0 C4.95 0 9.9 0 15 0 C15 4.95 15 9.9 15 15 C10.05 15 5.1 15 0 15 C0 10.05 0 5.1 0 0 Z " fill="#FFFFFF" transform="translate(315,45)"/>
<path d="M0 0 C4.95 0 9.9 0 15 0 C15 4.95 15 9.9 15 15 C10.05 15 5.1 15 0 15 C0 10.05 0 5.1 0 0 Z " fill="#EEEEEE" transform="translate(300,45)"/>
<path d="M0 0 C4.95 0 9.9 0 15 0 C15 4.95 15 9.9 15 15 C10.05 15 5.1 15 0 15 C0 10.05 0 5.1 0 0 Z " fill="#FFFFFF" transform="translate(285,45)"/>
<path d="M0 0 C4.95 0 9.9 0 15 0 C15 4.95 15 9.9 15 15 C10.05 15 5.1 15 0 15 C0 10.05 0 5.1 0 0 Z " fill="#EEEEEE" transform="translate(270,45)"/>
<path d="M0 0 C4.95 0 9.9 0 15 0 C15 4.95 15 9.9 15 15 C10.05 15 5.1 15 0 15 C0 10.05 0 5.1 0 0 Z " fill="#FFFFFF" transform="translate(255,45)"/>
<path d="M0 0 C4.95 0 9.9 0 15 0 C15 4.95 15 9.9 15 15 C10.05 15 5.1 15 0 15 C0 10.05 0 5.1 0 0 Z " fill="#EEEEEE" transform="translate(240,45)"/>
<path d="M0 0 C4.95 0 9.9 0 15 0 C15 4.95 15 9.9 15 15 C10.05 15 5.1 15 0 15 C0 10.05 0 5.1 0 0 Z " fill="#FFFFFF" transform="translate(225,45)"/>
<path d="M0 0 C4.95 0 9.9 0 15 0 C15 4.95 15 9.9 15 15 C10.05 15 5.1 15 0 15 C0 10.05 0 5.1 0 0 Z " fill="#FFFFFF" transform="translate(165,45)"/>
<path d="M0 0 C4.95 0 9.9 0 15 0 C15 4.95 15 9.9 15 15 C10.05 15 5.1 15 0 15 C0 10.05 0 5.1 0 0 Z " fill="#EEEEEE" transform="translate(150,45)"/>
<path d="M0 0 C4.95 0 9.9 0 15 0 C15 4.95 15 9.9 15 15 C10.05 15 5.1 15 0 15 C0 10.05 0 5.1 0 0 Z " fill="#FFFFFF" transform="translate(135,45)"/>
<path d="M0 0 C4.95 0 9.9 0 15 0 C15 4.95 15 9.9 15 15 C10.05 15 5.1 15 0 15 C0 10.05 0 5.1 0 0 Z " fill="#EEEEEE" transform="translate(120,45)"/>
<path d="M0 0 C4.95 0 9.9 0 15 0 C15 4.95 15 9.9 15 15 C10.05 15 5.1 15 0 15 C0 10.05 0 5.1 0 0 Z " fill="#FFFFFF" transform="translate(105,45)"/>
<path d="M0 0 C4.95 0 9.9 0 15 0 C15 4.95 15 9.9 15 15 C10.05 15 5.1 15 0 15 C0 10.05 0 5.1 0 0 Z " fill="#EEEEEE" transform="translate(90,45)"/>
<path d="M0 0 C4.95 0 9.9 0 15 0 C15 4.95 15 9.9 15 15 C10.05 15 5.1 15 0 15 C0 10.05 0 5.1 0 0 Z " fill="#FFFFFF" transform="translate(75,45)"/>
<path d="M0 0 C4.95 0 9.9 0 15 0 C15 4.95 15 9.9 15 15 C10.05 15 5.1 15 0 15 C0 10.05 0 5.1 0 0 Z " fill="#EEEEEE" transform="translate(60,45)"/>
<path d="M0 0 C4.95 0 9.9 0 15 0 C15 4.95 15 9.9 15 15 C10.05 15 5.1 15 0 15 C0 10.05 0 5.1 0 0 Z " fill="#FFFFFF" transform="translate(45,45)"/>
<path d="M0 0 C4.95 0 9.9 0 15 0 C15 4.95 15 9.9 15 15 C10.05 15 5.1 15 0 15 C0 10.05 0 5.1 0 0 Z " fill="#EEEEEE" transform="translate(30,45)"/>
<path d="M0 0 C4.95 0 9.9 0 15 0 C15 4.95 15 9.9 15 15 C10.05 15 5.1 15 0 15 C0 10.05 0 5.1 0 0 Z " fill="#FFFFFF" transform="translate(15,45)"/>
<path d="M0 0 C4.95 0 9.9 0 15 0 C15 4.95 15 9.9 15 15 C10.05 15 5.1 15 0 15 C0 10.05 0 5.1 0 0 Z " fill="#EEEEEE" transform="translate(0,45)"/>
<path d="M0 0 C4.95 0 9.9 0 15 0 C15 4.95 15 9.9 15 15 C10.05 15 5.1 15 0 15 C0 10.05 0 5.1 0 0 Z " fill="#EEEEEE" transform="translate(345,30)"/>
<path d="M0 0 C4.95 0 9.9 0 15 0 C15 4.95 15 9.9 15 15 C10.05 15 5.1 15 0 15 C0 10.05 0 5.1 0 0 Z " fill="#FFFFFF" transform="translate(330,30)"/>
<path d="M0 0 C4.95 0 9.9 0 15 0 C15 4.95 15 9.9 15 15 C10.05 15 5.1 15 0 15 C0 10.05 0 5.1 0 0 Z " fill="#EEEEEE" transform="translate(315,30)"/>
<path d="M0 0 C4.95 0 9.9 0 15 0 C15 4.95 15 9.9 15 15 C10.05 15 5.1 15 0 15 C0 10.05 0 5.1 0 0 Z " fill="#FFFFFF" transform="translate(300,30)"/>
<path d="M0 0 C4.95 0 9.9 0 15 0 C15 4.95 15 9.9 15 15 C10.05 15 5.1 15 0 15 C0 10.05 0 5.1 0 0 Z " fill="#EEEEEE" transform="translate(285,30)"/>
<path d="M0 0 C4.95 0 9.9 0 15 0 C15 4.95 15 9.9 15 15 C10.05 15 5.1 15 0 15 C0 10.05 0 5.1 0 0 Z " fill="#FFFFFF" transform="translate(270,30)"/>
<path d="M0 0 C4.95 0 9.9 0 15 0 C15 4.95 15 9.9 15 15 C10.05 15 5.1 15 0 15 C0 10.05 0 5.1 0 0 Z " fill="#EEEEEE" transform="translate(255,30)"/>
<path d="M0 0 C4.95 0 9.9 0 15 0 C15 4.95 15 9.9 15 15 C10.05 15 5.1 15 0 15 C0 10.05 0 5.1 0 0 Z " fill="#FFFFFF" transform="translate(240,30)"/>
<path d="M0 0 C4.95 0 9.9 0 15 0 C15 4.95 15 9.9 15 15 C10.05 15 5.1 15 0 15 C0 10.05 0 5.1 0 0 Z " fill="#EEEEEE" transform="translate(225,30)"/>
<path d="M0 0 C4.95 0 9.9 0 15 0 C15 4.95 15 9.9 15 15 C10.05 15 5.1 15 0 15 C0 10.05 0 5.1 0 0 Z " fill="#FFFFFF" transform="translate(180,30)"/>
<path d="M0 0 C4.95 0 9.9 0 15 0 C15 4.95 15 9.9 15 15 C10.05 15 5.1 15 0 15 C0 10.05 0 5.1 0 0 Z " fill="#EEEEEE" transform="translate(165,30)"/>
<path d="M0 0 C4.95 0 9.9 0 15 0 C15 4.95 15 9.9 15 15 C10.05 15 5.1 15 0 15 C0 10.05 0 5.1 0 0 Z " fill="#FFFFFF" transform="translate(150,30)"/>
<path d="M0 0 C4.95 0 9.9 0 15 0 C15 4.95 15 9.9 15 15 C10.05 15 5.1 15 0 15 C0 10.05 0 5.1 0 0 Z " fill="#EEEEEE" transform="translate(135,30)"/>
<path d="M0 0 C4.95 0 9.9 0 15 0 C15 4.95 15 9.9 15 15 C10.05 15 5.1 15 0 15 C0 10.05 0 5.1 0 0 Z " fill="#FFFFFF" transform="translate(120,30)"/>
<path d="M0 0 C4.95 0 9.9 0 15 0 C15 4.95 15 9.9 15 15 C10.05 15 5.1 15 0 15 C0 10.05 0 5.1 0 0 Z " fill="#EEEEEE" transform="translate(105,30)"/>
<path d="M0 0 C4.95 0 9.9 0 15 0 C15 4.95 15 9.9 15 15 C10.05 15 5.1 15 0 15 C0 10.05 0 5.1 0 0 Z " fill="#FFFFFF" transform="translate(90,30)"/>
<path d="M0 0 C4.95 0 9.9 0 15 0 C15 4.95 15 9.9 15 15 C10.05 15 5.1 15 0 15 C0 10.05 0 5.1 0 0 Z " fill="#EEEEEE" transform="translate(75,30)"/>
<path d="M0 0 C4.95 0 9.9 0 15 0 C15 4.95 15 9.9 15 15 C10.05 15 5.1 15 0 15 C0 10.05 0 5.1 0 0 Z " fill="#FFFFFF" transform="translate(60,30)"/>
<path d="M0 0 C4.95 0 9.9 0 15 0 C15 4.95 15 9.9 15 15 C10.05 15 5.1 15 0 15 C0 10.05 0 5.1 0 0 Z " fill="#EEEEEE" transform="translate(45,30)"/>
<path d="M0 0 C4.95 0 9.9 0 15 0 C15 4.95 15 9.9 15 15 C10.05 15 5.1 15 0 15 C0 10.05 0 5.1 0 0 Z " fill="#FFFFFF" transform="translate(30,30)"/>
<path d="M0 0 C4.95 0 9.9 0 15 0 C15 4.95 15 9.9 15 15 C10.05 15 5.1 15 0 15 C0 10.05 0 5.1 0 0 Z " fill="#EEEEEE" transform="translate(15,30)"/>
<path d="M0 0 C4.95 0 9.9 0 15 0 C15 4.95 15 9.9 15 15 C10.05 15 5.1 15 0 15 C0 10.05 0 5.1 0 0 Z " fill="#FFFFFF" transform="translate(0,30)"/>
<path d="M0 0 C4.95 0 9.9 0 15 0 C15 4.95 15 9.9 15 15 C10.05 15 5.1 15 0 15 C0 10.05 0 5.1 0 0 Z " fill="#FFFFFF" transform="translate(345,15)"/>
<path d="M0 0 C4.95 0 9.9 0 15 0 C15 4.95 15 9.9 15 15 C10.05 15 5.1 15 0 15 C0 10.05 0 5.1 0 0 Z " fill="#EEEEEE" transform="translate(330,15)"/>
<path d="M0 0 C4.95 0 9.9 0 15 0 C15 4.95 15 9.9 15 15 C10.05 15 5.1 15 0 15 C0 10.05 0 5.1 0 0 Z " fill="#FFFFFF" transform="translate(315,15)"/>
<path d="M0 0 C4.95 0 9.9 0 15 0 C15 4.95 15 9.9 15 15 C10.05 15 5.1 15 0 15 C0 10.05 0 5.1 0 0 Z " fill="#EEEEEE" transform="translate(300,15)"/>
<path d="M0 0 C4.95 0 9.9 0 15 0 C15 4.95 15 9.9 15 15 C10.05 15 5.1 15 0 15 C0 10.05 0 5.1 0 0 Z " fill="#FFFFFF" transform="translate(285,15)"/>
<path d="M0 0 C4.95 0 9.9 0 15 0 C15 4.95 15 9.9 15 15 C10.05 15 5.1 15 0 15 C0 10.05 0 5.1 0 0 Z " fill="#EEEEEE" transform="translate(270,15)"/>
<path d="M0 0 C4.95 0 9.9 0 15 0 C15 4.95 15 9.9 15 15 C10.05 15 5.1 15 0 15 C0 10.05 0 5.1 0 0 Z " fill="#FFFFFF" transform="translate(255,15)"/>
<path d="M0 0 C4.95 0 9.9 0 15 0 C15 4.95 15 9.9 15 15 C10.05 15 5.1 15 0 15 C0 10.05 0 5.1 0 0 Z " fill="#EEEEEE" transform="translate(240,15)"/>
<path d="M0 0 C4.95 0 9.9 0 15 0 C15 4.95 15 9.9 15 15 C10.05 15 5.1 15 0 15 C0 10.05 0 5.1 0 0 Z " fill="#FFFFFF" transform="translate(225,15)"/>
<path d="M0 0 C4.95 0 9.9 0 15 0 C15 4.95 15 9.9 15 15 C10.05 15 5.1 15 0 15 C0 10.05 0 5.1 0 0 Z " fill="#EEEEEE" transform="translate(210,15)"/>
<path d="M0 0 C4.95 0 9.9 0 15 0 C15 4.95 15 9.9 15 15 C10.05 15 5.1 15 0 15 C0 10.05 0 5.1 0 0 Z " fill="#FFFFFF" transform="translate(195,15)"/>
<path d="M0 0 C4.95 0 9.9 0 15 0 C15 4.95 15 9.9 15 15 C10.05 15 5.1 15 0 15 C0 10.05 0 5.1 0 0 Z " fill="#EEEEEE" transform="translate(180,15)"/>
<path d="M0 0 C4.95 0 9.9 0 15 0 C15 4.95 15 9.9 15 15 C10.05 15 5.1 15 0 15 C0 10.05 0 5.1 0 0 Z " fill="#FFFFFF" transform="translate(165,15)"/>
<path d="M0 0 C4.95 0 9.9 0 15 0 C15 4.95 15 9.9 15 15 C10.05 15 5.1 15 0 15 C0 10.05 0 5.1 0 0 Z " fill="#EEEEEE" transform="translate(150,15)"/>
<path d="M0 0 C4.95 0 9.9 0 15 0 C15 4.95 15 9.9 15 15 C10.05 15 5.1 15 0 15 C0 10.05 0 5.1 0 0 Z " fill="#FFFFFF" transform="translate(135,15)"/>
<path d="M0 0 C4.95 0 9.9 0 15 0 C15 4.95 15 9.9 15 15 C10.05 15 5.1 15 0 15 C0 10.05 0 5.1 0 0 Z " fill="#EEEEEE" transform="translate(120,15)"/>
<path d="M0 0 C4.95 0 9.9 0 15 0 C15 4.95 15 9.9 15 15 C10.05 15 5.1 15 0 15 C0 10.05 0 5.1 0 0 Z " fill="#FFFFFF" transform="translate(105,15)"/>
<path d="M0 0 C4.95 0 9.9 0 15 0 C15 4.95 15 9.9 15 15 C10.05 15 5.1 15 0 15 C0 10.05 0 5.1 0 0 Z " fill="#EEEEEE" transform="translate(90,15)"/>
<path d="M0 0 C4.95 0 9.9 0 15 0 C15 4.95 15 9.9 15 15 C10.05 15 5.1 15 0 15 C0 10.05 0 5.1 0 0 Z " fill="#FFFFFF" transform="translate(75,15)"/>
<path d="M0 0 C4.95 0 9.9 0 15 0 C15 4.95 15 9.9 15 15 C10.05 15 5.1 15 0 15 C0 10.05 0 5.1 0 0 Z " fill="#EEEEEE" transform="translate(60,15)"/>
<path d="M0 0 C4.95 0 9.9 0 15 0 C15 4.95 15 9.9 15 15 C10.05 15 5.1 15 0 15 C0 10.05 0 5.1 0 0 Z " fill="#FFFFFF" transform="translate(45,15)"/>
<path d="M0 0 C4.95 0 9.9 0 15 0 C15 4.95 15 9.9 15 15 C10.05 15 5.1 15 0 15 C0 10.05 0 5.1 0 0 Z " fill="#EEEEEE" transform="translate(30,15)"/>
<path d="M0 0 C4.95 0 9.9 0 15 0 C15 4.95 15 9.9 15 15 C10.05 15 5.1 15 0 15 C0 10.05 0 5.1 0 0 Z " fill="#FFFFFF" transform="translate(15,15)"/>
<path d="M0 0 C4.95 0 9.9 0 15 0 C15 4.95 15 9.9 15 15 C10.05 15 5.1 15 0 15 C0 10.05 0 5.1 0 0 Z " fill="#EEEEEE" transform="translate(0,15)"/>
<path d="M0 0 C4.95 0 9.9 0 15 0 C15 4.95 15 9.9 15 15 C10.05 15 5.1 15 0 15 C0 10.05 0 5.1 0 0 Z " fill="#EEEEEE" transform="translate(345,0)"/>
<path d="M0 0 C4.95 0 9.9 0 15 0 C15 4.95 15 9.9 15 15 C10.05 15 5.1 15 0 15 C0 10.05 0 5.1 0 0 Z " fill="#FFFFFF" transform="translate(330,0)"/>
<path d="M0 0 C4.95 0 9.9 0 15 0 C15 4.95 15 9.9 15 15 C10.05 15 5.1 15 0 15 C0 10.05 0 5.1 0 0 Z " fill="#EEEEEE" transform="translate(315,0)"/>
<path d="M0 0 C4.95 0 9.9 0 15 0 C15 4.95 15 9.9 15 15 C10.05 15 5.1 15 0 15 C0 10.05 0 5.1 0 0 Z " fill="#FFFFFF" transform="translate(300,0)"/>
<path d="M0 0 C4.95 0 9.9 0 15 0 C15 4.95 15 9.9 15 15 C10.05 15 5.1 15 0 15 C0 10.05 0 5.1 0 0 Z " fill="#EEEEEE" transform="translate(285,0)"/>
<path d="M0 0 C4.95 0 9.9 0 15 0 C15 4.95 15 9.9 15 15 C10.05 15 5.1 15 0 15 C0 10.05 0 5.1 0 0 Z " fill="#FFFFFF" transform="translate(270,0)"/>
<path d="M0 0 C4.95 0 9.9 0 15 0 C15 4.95 15 9.9 15 15 C10.05 15 5.1 15 0 15 C0 10.05 0 5.1 0 0 Z " fill="#EEEEEE" transform="translate(255,0)"/>
<path d="M0 0 C4.95 0 9.9 0 15 0 C15 4.95 15 9.9 15 15 C10.05 15 5.1 15 0 15 C0 10.05 0 5.1 0 0 Z " fill="#FFFFFF" transform="translate(240,0)"/>
<path d="M0 0 C4.95 0 9.9 0 15 0 C15 4.95 15 9.9 15 15 C10.05 15 5.1 15 0 15 C0 10.05 0 5.1 0 0 Z " fill="#EEEEEE" transform="translate(225,0)"/>
<path d="M0 0 C4.95 0 9.9 0 15 0 C15 4.95 15 9.9 15 15 C10.05 15 5.1 15 0 15 C0 10.05 0 5.1 0 0 Z " fill="#FFFFFF" transform="translate(210,0)"/>
<path d="M0 0 C4.95 0 9.9 0 15 0 C15 4.95 15 9.9 15 15 C10.05 15 5.1 15 0 15 C0 10.05 0 5.1 0 0 Z " fill="#EEEEEE" transform="translate(195,0)"/>
<path d="M0 0 C4.95 0 9.9 0 15 0 C15 4.95 15 9.9 15 15 C10.05 15 5.1 15 0 15 C0 10.05 0 5.1 0 0 Z " fill="#FFFFFF" transform="translate(180,0)"/>
<path d="M0 0 C4.95 0 9.9 0 15 0 C15 4.95 15 9.9 15 15 C10.05 15 5.1 15 0 15 C0 10.05 0 5.1 0 0 Z " fill="#EEEEEE" transform="translate(165,0)"/>
<path d="M0 0 C4.95 0 9.9 0 15 0 C15 4.95 15 9.9 15 15 C10.05 15 5.1 15 0 15 C0 10.05 0 5.1 0 0 Z " fill="#FFFFFF" transform="translate(150,0)"/>
<path d="M0 0 C4.95 0 9.9 0 15 0 C15 4.95 15 9.9 15 15 C10.05 15 5.1 15 0 15 C0 10.05 0 5.1 0 0 Z " fill="#EEEEEE" transform="translate(135,0)"/>
<path d="M0 0 C4.95 0 9.9 0 15 0 C15 4.95 15 9.9 15 15 C10.05 15 5.1 15 0 15 C0 10.05 0 5.1 0 0 Z " fill="#FFFFFF" transform="translate(120,0)"/>
<path d="M0 0 C4.95 0 9.9 0 15 0 C15 4.95 15 9.9 15 15 C10.05 15 5.1 15 0 15 C0 10.05 0 5.1 0 0 Z " fill="#EEEEEE" transform="translate(105,0)"/>
<path d="M0 0 C4.95 0 9.9 0 15 0 C15 4.95 15 9.9 15 15 C10.05 15 5.1 15 0 15 C0 10.05 0 5.1 0 0 Z " fill="#FFFFFF" transform="translate(90,0)"/>
<path d="M0 0 C4.95 0 9.9 0 15 0 C15 4.95 15 9.9 15 15 C10.05 15 5.1 15 0 15 C0 10.05 0 5.1 0 0 Z " fill="#EEEEEE" transform="translate(75,0)"/>
<path d="M0 0 C4.95 0 9.9 0 15 0 C15 4.95 15 9.9 15 15 C10.05 15 5.1 15 0 15 C0 10.05 0 5.1 0 0 Z " fill="#FFFFFF" transform="translate(60,0)"/>
<path d="M0 0 C4.95 0 9.9 0 15 0 C15 4.95 15 9.9 15 15 C10.05 15 5.1 15 0 15 C0 10.05 0 5.1 0 0 Z " fill="#EEEEEE" transform="translate(45,0)"/>
<path d="M0 0 C4.95 0 9.9 0 15 0 C15 4.95 15 9.9 15 15 C10.05 15 5.1 15 0 15 C0 10.05 0 5.1 0 0 Z " fill="#FFFFFF" transform="translate(30,0)"/>
<path d="M0 0 C4.95 0 9.9 0 15 0 C15 4.95 15 9.9 15 15 C10.05 15 5.1 15 0 15 C0 10.05 0 5.1 0 0 Z " fill="#FFFFFF" transform="translate(0,0)"/>
<path d="M0 0 C4.95 0 9.9 0 15 0 C15 4.62 15 9.24 15 14 C10.73840618 16.13079691 4.59236298 15.04502317 0 15 C0 10.05 0 5.1 0 0 Z " fill="#EEEEEE" transform="translate(225,60)"/>
<path d="M0 0 C4.98046875 0.09765625 4.98046875 0.09765625 9.9609375 0.1953125 C9.9609375 5.1453125 9.9609375 10.0953125 9.9609375 15.1953125 C5.0109375 15.1953125 0.0609375 15.1953125 -5.0390625 15.1953125 C-5.234375 5.234375 -5.234375 5.234375 -5.0390625 2.1953125 C-3.0390625 0.1953125 -3.0390625 0.1953125 0 0 Z " fill="#EEEEEE" transform="translate(125.0390625,224.8046875)"/>
<path d="M0 0 C1.57735254 4.00868577 0.38073497 7.05272453 -0.8125 11.0625 C-1.16957031 12.29097656 -1.52664062 13.51945312 -1.89453125 14.78515625 C-3 18 -3 18 -5 21 C-5 20.34 -5 19.68 -5 19 C-8.3 19 -11.6 19 -15 19 C-15 14.05 -15 9.1 -15 4 C-10.38 3.67 -5.76 3.34 -1 3 C-0.67 2.01 -0.34 1.02 0 0 Z " fill="#FDFDFD" transform="translate(195,56)"/>
<path d="M0 0 C1.155 0.33 2.31 0.66 3.5 1 C3.5 5.95 3.5 10.9 3.5 16 C-1.45 16 -6.4 16 -11.5 16 C-12.38235141 12.91177008 -12.87375827 11.12167118 -12.5 8 C-9.54830368 3.16629568 -5.97435071 -0.75881735 0 0 Z " fill="#FFFFFF" transform="translate(101.5,119)"/>
<path d="M0 0 C1.155 0.33 2.31 0.66 3.5 1 C3.5 5.95 3.5 10.9 3.5 16 C-1.45 16 -6.4 16 -11.5 16 C-12.38235141 12.91177008 -12.87375827 11.12167118 -12.5 8 C-9.54830368 3.16629568 -5.97435071 -0.75881735 0 0 Z " fill="#FFFFFF" transform="translate(116.5,104)"/>
<path d="M0 0 C1.155 0.33 2.31 0.66 3.5 1 C3.5 5.95 3.5 10.9 3.5 16 C-1.45 16 -6.4 16 -11.5 16 C-12.38235141 12.91177008 -12.87375827 11.12167118 -12.5 8 C-9.54830368 3.16629568 -5.97435071 -0.75881735 0 0 Z " fill="#FFFFFF" transform="translate(131.5,89)"/>
<path d="M0 0 C4.62 0 9.24 0 14 0 C15.16915233 4.6766093 14.45376457 6.69677051 13.0625 11.25 C12.68222656 12.51328125 12.30195313 13.7765625 11.91015625 15.078125 C11.60980469 16.04234375 11.30945313 17.0065625 11 18 C10.67 17.01 10.34 16.02 10 15 C6.7 15 3.4 15 0 15 C0 10.05 0 5.1 0 0 Z " fill="#EBEBEB" transform="translate(150,165)"/>
<path d="M0 0 C0.33 0.66 0.66 1.32 1 2 C4.3 2 7.6 2 11 2 C11 6.95 11 11.9 11 17 C6.05 17 1.1 17 -4 17 C-2.89430162 11.23457274 -1.70899657 5.61527443 0 0 Z " fill="#EBEBEB" transform="translate(199,118)"/>
<path d="M0 0 C4.95 0 9.9 0 15 0 C15 4.95 15 9.9 15 15 C8.33845604 15.81808435 8.33845604 15.81808435 4.91015625 13.72265625 C2.22466025 11.30076722 0.26625041 9.3792251 -0.43359375 5.75390625 C-0.4375 3.5625 -0.4375 3.5625 0 0 Z " fill="#EEEEEE" transform="translate(120,195)"/>
<path d="M0 0 C4.95 0 9.9 0 15 0 C15 4.95 15 9.9 15 15 C8.33845604 15.81808435 8.33845604 15.81808435 4.91015625 13.72265625 C2.22466025 11.30076722 0.26625041 9.3792251 -0.43359375 5.75390625 C-0.4375 3.5625 -0.4375 3.5625 0 0 Z " fill="#EEEEEE" transform="translate(105,180)"/>
<path d="M0 0 C4.95 0 9.9 0 15 0 C15 4.95 15 9.9 15 15 C8.33845604 15.81808435 8.33845604 15.81808435 4.91015625 13.72265625 C2.22466025 11.30076722 0.26625041 9.3792251 -0.43359375 5.75390625 C-0.4375 3.5625 -0.4375 3.5625 0 0 Z " fill="#EEEEEE" transform="translate(90,165)"/>
<path d="M0 0 C4.95 0 9.9 0 15 0 C15 4.95 15 9.9 15 15 C8.33845604 15.81808435 8.33845604 15.81808435 4.91015625 13.72265625 C2.22466025 11.30076722 0.26625041 9.3792251 -0.43359375 5.75390625 C-0.4375 3.5625 -0.4375 3.5625 0 0 Z " fill="#EEEEEE" transform="translate(75,150)"/>
<path d="M0 0 C0.33 0.66 0.66 1.32 1 2 C3.64 2 6.28 2 9 2 C9 6.95 9 11.9 9 17 C4.71 17 0.42 17 -4 17 C-2.89430162 11.23457274 -1.70899657 5.61527443 0 0 Z " fill="#EBEBEB" transform="translate(186,163)"/>
<path d="M0 0 C4.95 0 9.9 0 15 0 C15 3.63 15 7.26 15 11 C10.05 11 5.1 11 0 11 C0 7.37 0 3.74 0 0 Z " fill="#EEEEEE" transform="translate(345,270)"/>
<path d="M0 0 C4.95 0 9.9 0 15 0 C15 3.63 15 7.26 15 11 C10.05 11 5.1 11 0 11 C0 7.37 0 3.74 0 0 Z " fill="#FFFFFF" transform="translate(330,270)"/>
<path d="M0 0 C4.95 0 9.9 0 15 0 C15 3.63 15 7.26 15 11 C10.05 11 5.1 11 0 11 C0 7.37 0 3.74 0 0 Z " fill="#EEEEEE" transform="translate(315,270)"/>
<path d="M0 0 C4.95 0 9.9 0 15 0 C15 3.63 15 7.26 15 11 C10.05 11 5.1 11 0 11 C0 7.37 0 3.74 0 0 Z " fill="#FFFFFF" transform="translate(300,270)"/>
<path d="M0 0 C4.95 0 9.9 0 15 0 C15 3.63 15 7.26 15 11 C10.05 11 5.1 11 0 11 C0 7.37 0 3.74 0 0 Z " fill="#EEEEEE" transform="translate(285,270)"/>
<path d="M0 0 C4.95 0 9.9 0 15 0 C15 3.63 15 7.26 15 11 C10.05 11 5.1 11 0 11 C0 7.37 0 3.74 0 0 Z " fill="#FFFFFF" transform="translate(270,270)"/>
<path d="M0 0 C4.95 0 9.9 0 15 0 C15 3.63 15 7.26 15 11 C10.05 11 5.1 11 0 11 C0 7.37 0 3.74 0 0 Z " fill="#EEEEEE" transform="translate(255,270)"/>
<path d="M0 0 C4.95 0 9.9 0 15 0 C15 3.63 15 7.26 15 11 C10.05 11 5.1 11 0 11 C0 7.37 0 3.74 0 0 Z " fill="#FFFFFF" transform="translate(240,270)"/>
<path d="M0 0 C4.95 0 9.9 0 15 0 C15 3.63 15 7.26 15 11 C10.05 11 5.1 11 0 11 C0 7.37 0 3.74 0 0 Z " fill="#EEEEEE" transform="translate(225,270)"/>
<path d="M0 0 C4.95 0 9.9 0 15 0 C15 3.63 15 7.26 15 11 C10.05 11 5.1 11 0 11 C0 7.37 0 3.74 0 0 Z " fill="#FFFFFF" transform="translate(210,270)"/>
<path d="M0 0 C4.95 0 9.9 0 15 0 C15 3.63 15 7.26 15 11 C10.05 11 5.1 11 0 11 C0 7.37 0 3.74 0 0 Z " fill="#EEEEEE" transform="translate(195,270)"/>
<path d="M0 0 C4.95 0 9.9 0 15 0 C15 3.63 15 7.26 15 11 C10.05 11 5.1 11 0 11 C0 7.37 0 3.74 0 0 Z " fill="#FFFFFF" transform="translate(180,270)"/>
<path d="M0 0 C4.95 0 9.9 0 15 0 C15 3.63 15 7.26 15 11 C10.05 11 5.1 11 0 11 C0 7.37 0 3.74 0 0 Z " fill="#EEEEEE" transform="translate(165,270)"/>
<path d="M0 0 C4.95 0 9.9 0 15 0 C15 3.63 15 7.26 15 11 C10.05 11 5.1 11 0 11 C0 7.37 0 3.74 0 0 Z " fill="#FFFFFF" transform="translate(150,270)"/>
<path d="M0 0 C4.95 0 9.9 0 15 0 C15 3.63 15 7.26 15 11 C10.05 11 5.1 11 0 11 C0 7.37 0 3.74 0 0 Z " fill="#EEEEEE" transform="translate(135,270)"/>
<path d="M0 0 C4.95 0 9.9 0 15 0 C15 3.63 15 7.26 15 11 C10.05 11 5.1 11 0 11 C0 7.37 0 3.74 0 0 Z " fill="#FFFFFF" transform="translate(120,270)"/>
<path d="M0 0 C4.95 0 9.9 0 15 0 C15 3.63 15 7.26 15 11 C10.05 11 5.1 11 0 11 C0 7.37 0 3.74 0 0 Z " fill="#EEEEEE" transform="translate(105,270)"/>
<path d="M0 0 C4.95 0 9.9 0 15 0 C15 3.63 15 7.26 15 11 C10.05 11 5.1 11 0 11 C0 7.37 0 3.74 0 0 Z " fill="#FFFFFF" transform="translate(90,270)"/>
<path d="M0 0 C4.95 0 9.9 0 15 0 C15 3.63 15 7.26 15 11 C10.05 11 5.1 11 0 11 C0 7.37 0 3.74 0 0 Z " fill="#EEEEEE" transform="translate(75,270)"/>
<path d="M0 0 C4.95 0 9.9 0 15 0 C15 3.63 15 7.26 15 11 C10.05 11 5.1 11 0 11 C0 7.37 0 3.74 0 0 Z " fill="#FFFFFF" transform="translate(60,270)"/>
<path d="M0 0 C4.95 0 9.9 0 15 0 C15 3.63 15 7.26 15 11 C10.05 11 5.1 11 0 11 C0 7.37 0 3.74 0 0 Z " fill="#EEEEEE" transform="translate(45,270)"/>
<path d="M0 0 C4.95 0 9.9 0 15 0 C15 3.63 15 7.26 15 11 C10.05 11 5.1 11 0 11 C0 7.37 0 3.74 0 0 Z " fill="#FFFFFF" transform="translate(30,270)"/>
<path d="M0 0 C4.95 0 9.9 0 15 0 C15 3.63 15 7.26 15 11 C10.05 11 5.1 11 0 11 C0 7.37 0 3.74 0 0 Z " fill="#EEEEEE" transform="translate(15,270)"/>
<path d="M0 0 C4.95 0 9.9 0 15 0 C15 3.63 15 7.26 15 11 C10.05 11 5.1 11 0 11 C0 7.37 0 3.74 0 0 Z " fill="#FFFFFF" transform="translate(0,270)"/>
<path d="M0 0 C3.96 0 7.92 0 12 0 C13.01263805 4.05055222 12.99501681 4.91933626 11.6875 8.625 C11.29111328 9.78902344 11.29111328 9.78902344 10.88671875 10.9765625 C10 13 10 13 8 15 C5.31160615 15.26991906 2.70858064 15.08737357 0 15 C0 10.05 0 5.1 0 0 Z " fill="#ECECEC" transform="translate(165,120)"/>
<path d="M0 0 C0 4.95 0 9.9 0 15 C-4.95 15 -9.9 15 -15 15 C-13.86046038 10.44184154 -11.86134233 8.4116575 -8.625 5.25 C-8.13 4.74339844 -7.635 4.23679688 -7.125 3.71484375 C-3.38011708 0 -3.38011708 0 0 0 Z " fill="#EEEEEE" transform="translate(300,180)"/>
<path d="M0 0 C0 4.95 0 9.9 0 15 C-4.95 15 -9.9 15 -15 15 C-13.86046038 10.44184154 -11.86134233 8.4116575 -8.625 5.25 C-8.13 4.74339844 -7.635 4.23679688 -7.125 3.71484375 C-3.38011708 0 -3.38011708 0 0 0 Z " fill="#EEEEEE" transform="translate(315,165)"/>
<path d="M0 0 C0.99 0.33 1.98 0.66 3 1 C3 1.66 3 2.32 3 3 C3.54366211 3.21769043 4.08732422 3.43538086 4.64746094 3.65966797 C7.79135918 5.45086778 10.12947667 7.88276581 12.640625 10.4453125 C13.16767029 10.97518768 13.69471558 11.50506287 14.23773193 12.05099487 C15.91325675 13.73767825 17.58167722 15.43119564 19.25 17.125 C20.38755851 18.27259388 21.52557436 19.41973461 22.6640625 20.56640625 C25.44803465 23.37238137 28.2256576 26.18450464 31 29 C30.01 29.33 29.02 29.66 28 30 C27.67 29.67 27.34 29.34 27 29 C25.65252916 28.76924918 24.29622435 28.58846937 22.9375 28.4375 C21.638125 28.293125 20.33875 28.14875 19 28 C18.505 23.05 18.505 23.05 18 18 C17.34 18 16.68 18 16 18 C16 17.34 16 16.68 16 16 C15.34 16 14.68 16 14 16 C14 15.34 14 14.68 14 14 C10.7 13.67 7.4 13.34 4 13 C4 10.03 4 7.06 4 4 C3.34 4 2.68 4 2 4 C2 3.34 2 2.68 2 2 C1.34 2 0.68 2 0 2 C0 1.34 0 0.68 0 0 Z " fill="#E7E7E7" transform="translate(236,92)"/>
<path d="M0 0 C3.3 0 6.6 0 10 0 C9.53856207 6.64470619 8.60822848 11.87633314 6 18 C5.67 17.01 5.34 16.02 5 15 C3.35 15 1.7 15 0 15 C0 10.05 0 5.1 0 0 Z " fill="#FCFCFC" transform="translate(150,180)"/>
<path d="M0 0 C0 4.95 0 9.9 0 15 C-3.63 15 -7.26 15 -11 15 C-9.0385906 4.35234899 -9.0385906 4.35234899 -7 1 C-5 0 -5 0 0 0 Z " fill="#EBEBEB" transform="translate(180,210)"/>
<path d="M0 0 C0.33 0 0.66 0 1 0 C1.19779903 4.4372916 0.62641704 7.76750596 -0.875 11.9375 C-2.07221541 15.31910843 -3.20799699 18.64125695 -4.0625 22.125 C-5 25 -5 25 -8 27 C-8 19.08 -8 11.16 -8 3 C-5.36 3 -2.72 3 0 3 C0 2.01 0 1.02 0 0 Z " fill="#FAFAFA" transform="translate(173,132)"/>
<path d="M0 0 C1.98 0 3.96 0 6 0 C6 4.95 6 9.9 6 15 C2.7 15 -0.6 15 -4 15 C-3.56214095 9.22026059 -2.99862039 5.08461719 0 0 Z " fill="#FAFAFA" transform="translate(204,105)"/>
<path d="M0 0 C2.64 0 5.28 0 8 0 C8 0.99 8 1.98 8 3 C8.50822644 7.57403795 9.79219048 10.96834783 12 15 C8.04 15 4.08 15 0 15 C0 10.05 0 5.1 0 0 Z " fill="#EEEEEE" transform="translate(225,210)"/>
<path d="M0 0 C0.33 0 0.66 0 1 0 C1 7.59 1 15.18 1 23 C-1.64 23 -4.28 23 -7 23 C-6.47955482 16.54647975 -5.75652976 9.93714103 -3 4 C-2.01 3.67 -1.02 3.34 0 3 C0 2.01 0 1.02 0 0 Z " fill="#F9F9F9" transform="translate(194,142)"/>
<path d="M0 0 C3.96 0 7.92 0 12 0 C12 4.95 12 9.9 12 15 C9.69 15 7.38 15 5 15 C4 12 4 12 4.75 9.75 C5.14745868 5.37795451 2.69000584 3.34610482 0 0 Z " fill="#EDEDED" transform="translate(123,75)"/>
<path d="M0 0 C3.18086518 1.50946511 5.29869906 3.07941825 7.75 5.625 C8.67039062 6.57246094 8.67039062 6.57246094 9.609375 7.5390625 C10.29773438 8.26222656 10.29773438 8.26222656 11 9 C9.61811547 12.21043882 8.07578097 14.04936365 5.375 16.25 C4.74335938 16.77078125 4.11171875 17.2915625 3.4609375 17.828125 C2.97882813 18.21484375 2.49671875 18.6015625 2 19 C0.48578999 17.48578999 0.78690144 16.07527232 0.68359375 13.96484375 C0.64169922 13.15595703 0.59980469 12.34707031 0.55664062 11.51367188 C0.51732422 10.66353516 0.47800781 9.81339844 0.4375 8.9375 C0.39431641 8.08349609 0.35113281 7.22949219 0.30664062 6.34960938 C0.20023298 4.23327963 0.09958269 2.11666187 0 0 Z " fill="#E8E8E8" transform="translate(284,140)"/>
<path d="M0 0 C2.31 0 4.62 0 7 0 C8.06333266 4.01703448 7.70555651 6.94305004 7 11 C7.33 11.99 7.66 12.98 8 14 C7.67 14.33 7.34 14.66 7 15 C4.69 15 2.38 15 0 15 C0 10.05 0 5.1 0 0 Z " fill="#ECECEC" transform="translate(135,240)"/>
<path d="M0 0 C2.31 0 4.62 0 7 0 C7 4.95 7 9.9 7 15 C4.69 15 2.38 15 0 15 C0.08378906 14.08476563 0.16757813 13.16953125 0.25390625 12.2265625 C0.35574219 11.03804687 0.45757812 9.84953125 0.5625 8.625 C0.66691406 7.44164062 0.77132812 6.25828125 0.87890625 5.0390625 C1.24153596 2.08101369 1.24153596 2.08101369 0 0 Z " fill="#EEEEEE" transform="translate(218,45)"/>
<path d="M0 0 C0.33 0 0.66 0 1 0 C0.36684209 5.12524666 -0.68160656 9.96530771 -2.0625 14.9375 C-2.24876953 15.62134766 -2.43503906 16.30519531 -2.62695312 17.00976562 C-3.08089057 18.67420293 -3.53990916 20.33725312 -4 22 C-6.03120707 18.95318939 -6.24659875 18.39881676 -6.1953125 14.98828125 C-6.18886719 14.23095703 -6.18242187 13.47363281 -6.17578125 12.69335938 C-6.15902344 11.90767578 -6.14226562 11.12199219 -6.125 10.3125 C-6.11597656 9.51521484 -6.10695312 8.71792969 -6.09765625 7.89648438 C-6.07411585 5.930861 -6.03824547 3.96539225 -6 2 C-4.02 2 -2.04 2 0 2 C0 1.34 0 0.68 0 0 Z " fill="#F5F5F5" transform="translate(186,88)"/>
<path d="M0 0 C2.64 0 5.28 0 8 0 C8 3 8 3 6.46875 4.60546875 C5.8190625 5.12753906 5.169375 5.64960938 4.5 6.1875 C3.8503125 6.71730469 3.200625 7.24710938 2.53125 7.79296875 C2.0259375 8.19128906 1.520625 8.58960938 1 9 C0 8 0 8 -0.09765625 6.15234375 C-0.06510417 4.1015625 -0.03255208 2.05078125 0 0 Z " fill="#E5E5E5" transform="translate(240,195)"/>
<path d="M0 0 C2.64 0 5.28 0 8 0 C8 3 8 3 6.46875 4.60546875 C5.8190625 5.12753906 5.169375 5.64960938 4.5 6.1875 C3.8503125 6.71730469 3.200625 7.24710938 2.53125 7.79296875 C2.0259375 8.19128906 1.520625 8.58960938 1 9 C0 8 0 8 -0.09765625 6.15234375 C-0.06510417 4.1015625 -0.03255208 2.05078125 0 0 Z " fill="#E5E5E5" transform="translate(255,180)"/>
<path d="M0 0 C2.64 0 5.28 0 8 0 C8 3 8 3 6.46875 4.60546875 C5.8190625 5.12753906 5.169375 5.64960938 4.5 6.1875 C3.8503125 6.71730469 3.200625 7.24710938 2.53125 7.79296875 C2.0259375 8.19128906 1.520625 8.58960938 1 9 C0 8 0 8 -0.09765625 6.15234375 C-0.06510417 4.1015625 -0.03255208 2.05078125 0 0 Z " fill="#E5E5E5" transform="translate(270,165)"/>
<path d="M0 0 C0.33 0 0.66 0 1 0 C1 3.63 1 7.26 1 11 C-0.65 11 -2.3 11 -4 11 C-3.71758359 9.53984709 -3.42373386 8.08190207 -3.125 6.625 C-2.96257812 5.81289062 -2.80015625 5.00078125 -2.6328125 4.1640625 C-2 2 -2 2 0 0 Z " fill="#F3F3F3" transform="translate(164,244)"/>
<path d="M0 0 C0.33 0 0.66 0 1 0 C1 2.31 1 4.62 1 7 C-1.31 7 -3.62 7 -6 7 C-5.02433888 5.83040013 -4.044375 4.66438823 -3.0625 3.5 C-2.51722656 2.8503125 -1.97195312 2.200625 -1.41015625 1.53125 C-0.71212891 0.77328125 -0.71212891 0.77328125 0 0 Z " fill="#EEEEEE" transform="translate(74,143)"/>
<path d="M0 0 C0.33 0 0.66 0 1 0 C1 2.31 1 4.62 1 7 C-1.31 7 -3.62 7 -6 7 C-5.02433888 5.83040013 -4.044375 4.66438823 -3.0625 3.5 C-2.51722656 2.8503125 -1.97195312 2.200625 -1.41015625 1.53125 C-0.71212891 0.77328125 -0.71212891 0.77328125 0 0 Z " fill="#EEEEEE" transform="translate(89,128)"/>
<path d="M0 0 C0.33 0 0.66 0 1 0 C1 2.31 1 4.62 1 7 C-1.31 7 -3.62 7 -6 7 C-5.02433888 5.83040013 -4.044375 4.66438823 -3.0625 3.5 C-2.51722656 2.8503125 -1.97195312 2.200625 -1.41015625 1.53125 C-0.71212891 0.77328125 -0.71212891 0.77328125 0 0 Z " fill="#EEEEEE" transform="translate(104,113)"/>
<path d="M0 0 C0.33 0 0.66 0 1 0 C1 2.31 1 4.62 1 7 C-1.31 7 -3.62 7 -6 7 C-5.02433888 5.83040013 -4.044375 4.66438823 -3.0625 3.5 C-2.51722656 2.8503125 -1.97195312 2.200625 -1.41015625 1.53125 C-0.71212891 0.77328125 -0.71212891 0.77328125 0 0 Z " fill="#EEEEEE" transform="translate(119,98)"/>
<path d="M0 0 C0.99 0 1.98 0 3 0 C3.75 2.25 3.75 2.25 4 5 C2.0625 7.3125 2.0625 7.3125 0 9 C0 6.03 0 3.06 0 0 Z " fill="#E6E6E6" transform="translate(165,150)"/>
<path d="M0 0 C0.66 0 1.32 0 2 0 C0.4169423 4.2742558 -2.50568404 6.26531794 -6 9 C-6 8.01 -6 7.02 -6 6 C-5.34 6 -4.68 6 -4 6 C-4 4.68 -4 3.36 -4 2 C-2.68 2 -1.36 2 0 2 C0 1.34 0 0.68 0 0 Z " fill="#E2E2E2" transform="translate(79,103)"/>
<path d="M0 0 C0.33 0 0.66 0 1 0 C1 2.64 1 5.28 1 8 C0.01 8 -0.98 8 -2 8 C-2.33 6.68 -2.66 5.36 -3 4 C-2.01 3.67 -1.02 3.34 0 3 C0 2.01 0 1.02 0 0 Z " fill="#E9E9E9" transform="translate(194,142)"/>
<path d="M0 0 C1.32 0 2.64 0 4 0 C2.60667426 3.36720387 1.0210714 4.9859524 -2 7 C-2 6.01 -2 5.02 -2 4 C-1.34 4 -0.68 4 0 4 C0 2.68 0 1.36 0 0 Z " fill="#E3E3E3" transform="translate(45,135)"/>
<path d="M0 0 C1.32 0 2.64 0 4 0 C2.60667426 3.36720387 1.0210714 4.9859524 -2 7 C-2 6.01 -2 5.02 -2 4 C-1.34 4 -0.68 4 0 4 C0 2.68 0 1.36 0 0 Z " fill="#E3E3E3" transform="translate(105,75)"/>
</svg>
